<?xml version="1.0" encoding="utf-8"?>
<!-- Generator: Adobe Illustrator 19.0.0, SVG Export Plug-In . SVG Version: 6.00 Build 0)  -->
<svg version="1.1" id="Layer_1" xmlns="http://www.w3.org/2000/svg" xmlns:xlink="http://www.w3.org/1999/xlink" x="0px" y="0px"
	 viewBox="0 0 1000 1000" style="enable-background:new 0 0 1000 1000;" xml:space="preserve">
<style type="text/css">
	.st0{fill:#2D3436;}
	.st1{fill:#FFFFFF;}
</style>
<g id="XMLID_44_">
	<rect id="XMLID_1_" class="st0" width="1000" height="1000"/>
	<g id="XMLID_2_">
		<path id="XMLID_6_" class="st1" d="M667.5,218.7c-8.9,24.8-21,47.2-35.9,66.9c-34.5,44.7-78,66.5-133,66.5
			c-54.4,0-97.3-21.2-131-64.7c-15.3-19.6-27.2-42.9-35.7-68.7H223.1l2.2,5.4c13.7,34.3,34.7,65.3,64.3,94.9
			c57,56.6,127.6,85.1,209.8,85.1c82.6,0,153.4-28.6,210.6-85.1c29.4-29,50.6-59.9,64.7-94.9l2.2-5.4H667.5z"/>
		<path id="XMLID_5_" class="st1" d="M321.4,781.3c-3.4-20-5.2-42.3-5.2-65.5c0-72.8,17.5-131.8,52-174.9
			c34.1-42.7,78.4-63.5,135.2-63.5c53.4,0,95.7,21,129.2,64.5C666.7,586,684,645.8,684,719.6c0,21.8-1.8,42.5-5.4,61.7h110.8
			c4.6-21.4,6.9-43.7,6.9-66.3c0-80.6-28.8-149.9-85.7-205.6c-56.8-55.8-127-84-209-84c-84.4,0-155.8,27.8-212.4,82.8
			c-56.8,55.2-85.5,124.6-85.5,206.8c0,22.8,2.4,45.1,6.7,66.3H321.4z"/>
	</g>
</g>
</svg>
