<?xml version="1.0" encoding="utf-8"?>
<!-- Generator: Adobe Illustrator 19.0.0, SVG Export Plug-In . SVG Version: 6.00 Build 0)  -->
<svg version="1.1" id="Layer_1" xmlns="http://www.w3.org/2000/svg" xmlns:xlink="http://www.w3.org/1999/xlink" x="0px" y="0px"
	 viewBox="0 0 873 789" style="enable-background:new 0 0 873 789;" xml:space="preserve">
<style type="text/css">
	.st0{fill:#0F2A3B;}
	.st1{fill:#FFCB2D;}
	.st2{fill:#FF5C5B;}
	.st3{fill:#FFB9B9;}
	.st4{fill:#F5F5F5;}
	.st5{fill:#216F9D;}
</style>
<g id="OBJECTS">
	
		<rect id="XMLID_255_" x="523.9" y="131.7" transform="matrix(-0.8781 0.4786 -0.4786 -0.8781 1179.3978 75.3674)" class="st0" width="112.4" height="112.4"/>
	<path id="XMLID_245_" class="st1" d="M661.6,207.7l-5.2,2.8l-54-99l5.2-2.8L661.6,207.7z M619.3,102.3l-5.2,2.8l54,99l5.2-2.8
		L619.3,102.3z M631,96l-5.2,2.8l54,99l5.2-2.8L631,96z M642.7,89.6l-5.2,2.8l54,99l5.2-2.8L642.7,89.6z M654.4,83.2l-5.2,2.8l54,99
		l5.2-2.8L654.4,83.2z M666.1,76.9l-5.2,2.8l54,99l5.2-2.8L666.1,76.9z M677.8,70.5l-5.2,2.8l54,99l5.2-2.8L677.8,70.5z M689.5,64.1
		l-5.2,2.8l54,99l5.2-2.8L689.5,64.1z M701.2,57.7l-5.2,2.8l54,99l5.2-2.8L701.2,57.7L701.2,57.7z"/>
	<g id="XMLID_233_">
		
			<rect id="XMLID_244_" x="137.9" y="598.1" transform="matrix(-0.8781 0.4786 -0.4786 -0.8781 677.767 1135.9846)" class="st2" width="112.4" height="112.4"/>
		<path id="XMLID_234_" class="st0" d="M177,727.9l-5.2,2.8l-54-99l5.2-2.8L177,727.9z M134.7,622.5l-5.2,2.8l54,99l5.2-2.8
			L134.7,622.5z M146.4,616.2l-5.2,2.8l54,99l5.2-2.8L146.4,616.2z M158.1,609.8l-5.2,2.8l54,99l5.2-2.8
			C212,708.8,158.1,609.8,158.1,609.8z M169.8,603.4l-5.2,2.8l54,99l5.2-2.8L169.8,603.4z M181.5,597l-5.2,2.8l54,99l5.2-2.8
			L181.5,597z M193.1,590.7l-5.2,2.8l54,99l5.2-2.8L193.1,590.7z M204.8,584.3l-5.2,2.8l54,99l5.2-2.8L204.8,584.3z M216.5,577.9
			l-5.2,2.8l54,99l5.2-2.8L216.5,577.9z"/>
	</g>
	<path id="XMLID_223_" class="st3" d="M662.6,456.3l2.8,5.2l-99,54l-2.8-5.2L662.6,456.3z M557.2,498.6l2.8,5.2l99-54l-2.8-5.2
		L557.2,498.6z M550.8,486.9l2.8,5.2l99-54l-2.8-5.2L550.8,486.9z M544.4,475.2l2.8,5.2l99-54l-2.8-5.2L544.4,475.2z M538.1,463.5
		l2.8,5.2l99-54l-2.8-5.2L538.1,463.5z M531.7,451.9l2.8,5.2l99-54l-2.8-5.2L531.7,451.9z M525.3,440.2l2.8,5.2l99-54l-2.8-5.2
		L525.3,440.2z M518.9,428.5l2.8,5.2l99-54l-2.8-5.2L518.9,428.5z M512.6,416.8l2.8,5.2l99-54l-2.8-5.2L512.6,416.8z"/>
	<ellipse id="XMLID_222_" class="st1" cx="490.3" cy="492.9" rx="56.1" ry="56.1"/>
	<circle id="XMLID_221_" class="st3" cx="732.6" cy="232.9" r="56.1"/>
	<g id="XMLID_218_">
		
			<rect id="XMLID_220_" x="182.9" y="445.6" transform="matrix(-0.8781 0.4786 -0.4786 -0.8781 689.1316 828.0801)" class="st2" width="112.4" height="112.4"/>
		<circle id="XMLID_219_" class="st4" cx="239.1" cy="501.8" r="56.1"/>
	</g>
	<path id="XMLID_217_" class="st2" d="M566.5,515.4l53.8,98.7l0.8-0.5c53.6-29.8,73.4-97.1,44.5-151.2l-0.5-0.8L566.5,515.4
		L566.5,515.4z"/>
	<path id="XMLID_216_" class="st1" d="M64.1,533.2l53.8,98.7l0.8-0.5c53.6-29.8,73.4-97.1,44.5-151.2l-0.5-0.8L64.1,533.2
		L64.1,533.2z"/>
	
		<rect id="XMLID_215_" x="371.4" y="86.8" transform="matrix(-0.8781 0.4786 -0.4786 -0.8781 871.4933 64.0029)" class="st1" width="112.4" height="112.4"/>
	
		<rect id="XMLID_214_" x="281.6" y="391.8" transform="matrix(-0.8781 0.4786 -0.4786 -0.8781 848.7661 679.8102)" class="st5" width="112.4" height="112.4"/>
	
		<rect id="XMLID_213_" x="236.7" y="544.3" transform="matrix(-0.8781 0.4786 -0.4786 -0.8781 837.4016 987.7146)" class="st1" width="112.4" height="112.4"/>
	<g id="XMLID_210_">
		<path id="XMLID_212_" class="st2" d="M557.6,264.2l-53.8-98.7L503,166c-53.6,29.8-73.4,97.1-44.5,151.2l0.9,1.7
			c29.8,53.6,97.1,73.4,151.2,44.5l0.8-0.5L557.6,264.2z"/>
		<path id="XMLID_211_" class="st0" d="M459.8,317.5l97.9-53.3l-53.3-97.9C533.2,220.4,513.4,287.7,459.8,317.5z"/>
	</g>
	<path id="XMLID_209_" class="st0" d="M414,470.5l98.7-53.8l-0.5-0.8c-29.8-53.6-97.1-73.4-151.2-44.5l-0.8,0.5L414,470.5z"/>
	<path id="XMLID_208_" class="st0" d="M862.6,354l-53.8-98.7l-0.8,0.5c-53.6,29.8-73.4,97.1-44.5,151.2l0.5,0.8L862.6,354L862.6,354
		z"/>
	<g id="XMLID_162_">
		<path id="XMLID_207_" class="st3" d="M515.8,101.1c-3.3-1.2-6.5-2.6-9.6-4.2c-0.7-0.4-1.6-0.3-2.2,0c-0.4,0.2-0.8,0.6-1,1
			c-0.6,1.2-0.1,2.6,1.1,3.2c3.3,1.6,6.6,3.1,10.1,4.4c1.2,0.5,2.6-0.2,3.1-1.4C517.7,103,517.1,101.6,515.8,101.1z"/>
		<path id="XMLID_206_" class="st3" d="M511.5,87.1c0.6-1.2,0.2-2.6-1-3.2c-3-1.6-6-3.5-8.8-5.5c-0.8-0.6-1.8-0.6-2.5-0.2
			c-0.3,0.2-0.6,0.4-0.8,0.7c-0.8,1.1-0.5,2.6,0.5,3.3c3,2.1,6.1,4.1,9.3,5.8C509.4,88.7,510.9,88.3,511.5,87.1z"/>
		<path id="XMLID_205_" class="st3" d="M497.9,95c0.7-1.1,0.4-2.6-0.7-3.3c-2.9-1.9-5.7-4-8.4-6.2c-0.8-0.6-1.8-0.7-2.7-0.3
			c-0.3,0.1-0.5,0.3-0.7,0.6c-0.8,1-0.7,2.5,0.3,3.4c2.8,2.3,5.8,4.5,8.8,6.5C495.7,96.5,497.2,96.1,497.9,95z"/>
		<path id="XMLID_204_" class="st3" d="M501.3,114.9c1.2,0.6,2.6,0,3.2-1.2c0.6-1.2,0-2.6-1.2-3.2c-3.2-1.5-6.3-3.1-9.3-4.9
			c-0.7-0.4-1.6-0.4-2.4,0c-0.4,0.2-0.7,0.5-0.9,0.9c-0.7,1.1-0.3,2.6,0.8,3.3C494.7,111.7,498,113.4,501.3,114.9z"/>
		<path id="XMLID_203_" class="st3" d="M481.1,81.8c0.9-0.9,1-2.4,0.1-3.4c-2.4-2.5-4.7-5.2-6.8-7.9c-0.7-0.9-2-1.2-3-0.6
			c-0.1,0.1-0.2,0.1-0.3,0.2c-1,0.8-1.2,2.3-0.4,3.3c2.2,2.9,4.6,5.7,7.2,8.3C478.6,82.7,480.1,82.7,481.1,81.8z"/>
		<path id="XMLID_202_" class="st3" d="M532.6,124.3c3.6,0.5,7.3,0.9,10.9,1.1c1.3,0.1,2.4-1,2.5-2.3c0.1-1.3-1-2.4-2.3-2.5
			c-3.5-0.2-7-0.5-10.4-1c-0.5-0.1-1,0-1.5,0.3c-0.6,0.3-1.1,1-1.2,1.7C530.4,122.9,531.3,124.1,532.6,124.3z"/>
		<path id="XMLID_201_" class="st3" d="M539.7,97.8c3.6,0.4,7.3,0.6,11,0.5c1.3,0,2.4-1.1,2.3-2.4c0-1.3-1.1-2.4-2.4-2.3
			c-3.5,0.1-7-0.1-10.4-0.4c-0.5-0.1-1,0.1-1.4,0.3c-0.7,0.4-1.1,1-1.2,1.8C537.4,96.5,538.4,97.7,539.7,97.8z"/>
		<path id="XMLID_200_" class="st3" d="M520,60.9c0.7-1.1,0.4-2.6-0.7-3.3c-2.9-1.9-5.5-4-8-6.4c-0.8-0.8-1.9-0.9-2.8-0.4
			c-0.2,0.1-0.4,0.3-0.6,0.4c-0.9,0.9-0.9,2.4,0,3.4c2.7,2.6,5.6,5,8.7,7C517.8,62.3,519.3,62,520,60.9z"/>
		<path id="XMLID_199_" class="st3" d="M524.2,75.3c-3.2-1.3-6.3-2.8-9.3-4.5c-0.7-0.4-1.6-0.4-2.3,0c-0.4,0.2-0.7,0.5-0.9,0.9
			c-0.7,1.1-0.3,2.6,0.9,3.3c3.2,1.9,6.5,3.5,10,4.8c1.2,0.5,2.6-0.1,3.1-1.3C526,77.2,525.4,75.8,524.2,75.3z"/>
		<path id="XMLID_198_" class="st3" d="M529.9,91.3c-3.4-0.8-6.7-1.8-9.9-3.1c-0.7-0.3-1.4-0.2-2,0.1c-0.5,0.3-0.9,0.7-1.1,1.2
			c-0.5,1.2,0.1,2.6,1.4,3.1c3.4,1.3,7,2.4,10.5,3.3c1.3,0.3,2.6-0.5,2.9-1.8C532,92.9,531.2,91.6,529.9,91.3z"/>
		<path id="XMLID_197_" class="st3" d="M533.4,21.4L533.4,21.4c1.3,2.4,3.1,4.4,5.4,6c1.1,0.8,2.6,0.5,3.3-0.6
			c0.7-1.1,0.5-2.6-0.6-3.3c-1.6-1.1-3-2.6-3.9-4.4l0,0C537.6,19.1,533.4,21.4,533.4,21.4z"/>
		<path id="XMLID_196_" class="st3" d="M506.7,68.3c0.8-1,0.7-2.5-0.3-3.4c-2.7-2.2-5.2-4.6-7.5-7.1c-0.8-0.8-2-1-2.9-0.5
			c-0.2,0.1-0.3,0.2-0.5,0.3c-1,0.9-1.1,2.4-0.2,3.4c2.5,2.7,5.2,5.3,8,7.6C504.4,69.4,505.9,69.3,506.7,68.3z"/>
		<path id="XMLID_195_" class="st3" d="M482.4,103.8c1.1,0.8,2.6,0.5,3.3-0.5c0.8-1.1,0.5-2.6-0.5-3.3c-2.8-2.1-5.6-4.3-8.2-6.6
			c-0.8-0.7-1.9-0.8-2.7-0.3c-0.2,0.1-0.5,0.3-0.6,0.5c-0.9,1-0.8,2.5,0.2,3.4C476.6,99.3,479.5,101.7,482.4,103.8z"/>
		<path id="XMLID_194_" class="st3" d="M456.2,72.6c1.1-0.7,1.5-2.2,0.8-3.3c-1-1.6-1.9-3.2-2.8-4.8l0,0l-4.2,2.3l0,0
			c0.9,1.7,1.9,3.4,2.9,5C453.6,72.9,455.1,73.3,456.2,72.6z"/>
		<path id="XMLID_193_" class="st3" d="M524.6,108.9c3.5,0.9,7.2,1.6,10.8,2.1c1.3,0.2,2.5-0.7,2.7-2c0.2-1.3-0.7-2.5-2-2.7
			c-3.4-0.5-6.9-1.1-10.3-2c-0.6-0.2-1.2-0.1-1.7,0.2c-0.6,0.3-1,0.8-1.2,1.5C522.6,107.3,523.4,108.6,524.6,108.9z"/>
		<path id="XMLID_192_" class="st3" d="M546.4,111.9c3.7,0.1,7.3,0,11-0.3c1.3-0.1,2.3-1.3,2.2-2.6c-0.1-1.3-1.3-2.3-2.6-2.2
			c-3.5,0.3-7,0.4-10.4,0.3c-0.4,0-0.8,0.1-1.2,0.3c-0.7,0.4-1.2,1.2-1.2,2C544,110.7,545,111.8,546.4,111.9z"/>
		<path id="XMLID_191_" class="st3" d="M497.7,40.8L497.7,40.8c1,1.8,2,3.5,3.2,5.2c0.7,1.1,2.2,1.4,3.3,0.6
			c1.1-0.7,1.4-2.2,0.6-3.3c-1-1.5-2-3.1-2.9-4.8l0,0L497.7,40.8L497.7,40.8z"/>
		<path id="XMLID_190_" class="st3" d="M464.3,64.4c0.7,1.1,2.2,1.5,3.3,0.8c1.1-0.7,1.5-2.1,0.8-3.3c-0.8-1.3-1.5-2.6-2.3-3.9l0,0
			l-4.2,2.3l0,0C462.7,61.7,463.5,63.1,464.3,64.4z"/>
		<path id="XMLID_189_" class="st3" d="M459.6,77.5c-1.1,0.8-1.3,2.3-0.5,3.3c2.2,2.9,4.6,5.7,7,8.4c0.9,1,2.4,1,3.4,0.1
			s1-2.4,0.1-3.4c-2.4-2.6-4.6-5.3-6.7-8c-0.7-1-2-1.2-3-0.7C459.7,77.4,459.6,77.4,459.6,77.5z"/>
		<path id="XMLID_188_" class="st3" d="M483.6,63.6c-0.1,0.1-0.3,0.2-0.4,0.3c-1,0.8-1.2,2.3-0.3,3.4c2.3,2.8,4.9,5.5,7.5,8
			c1,0.9,2.5,0.8,3.4-0.1c0.9-1,0.9-2.5-0.1-3.4c-2.5-2.4-4.9-4.9-7.1-7.6C485.8,63.3,484.6,63.1,483.6,63.6z"/>
		<path id="XMLID_187_" class="st3" d="M488.6,52.2c0.7,1.1,2.2,1.4,3.3,0.7c1.1-0.7,1.4-2.2,0.7-3.3c-0.9-1.5-1.9-3-2.7-4.5l0,0
			l-4.2,2.3c0,0,0,0,0,0C486.6,49,487.6,50.6,488.6,52.2z"/>
		<path id="XMLID_186_" class="st3" d="M479.7,59c1.1-0.7,1.5-2.2,0.8-3.3c-0.9-1.4-1.7-2.8-2.5-4.2l0,0l-4.2,2.3
			c0.8,1.5,1.7,3,2.6,4.5C477.1,59.4,478.6,59.7,479.7,59z"/>
		<path id="XMLID_185_" class="st3" d="M521.9,122.2c1.3,0.3,2.6-0.5,2.9-1.7c0.3-1.3-0.5-2.6-1.7-2.9c-3.4-0.8-6.8-1.8-10-3
			c-0.7-0.2-1.4-0.2-1.9,0.2c-0.5,0.3-0.9,0.7-1.1,1.3c-0.4,1.2,0.2,2.6,1.5,3C514.8,120.2,518.3,121.3,521.9,122.2z"/>
		<path id="XMLID_184_" class="st3" d="M557.3,42.9c2.2-0.6,4.3-1.5,6.3-2.6l-2.3-4.2c-1.7,0.9-3.5,1.7-5.3,2.2
			c-0.2,0-0.3,0.1-0.5,0.2c-1,0.5-1.5,1.7-1.1,2.8C554.8,42.5,556.1,43.2,557.3,42.9z"/>
		<path id="XMLID_183_" class="st3" d="M563.8,55c2.2-0.8,4.3-1.7,6.3-2.9l-2.3-4.2c-1.8,1-3.7,1.9-5.6,2.6c-0.1,0-0.2,0.1-0.3,0.2
			c-1,0.6-1.5,1.8-1.1,2.9C561.2,54.8,562.6,55.5,563.8,55z"/>
		<path id="XMLID_182_" class="st3" d="M570.2,67.1c2.2-0.9,4.3-1.9,6.4-3l-2.3-4.2c-1.9,1-3.9,2-5.9,2.8c-0.1,0-0.2,0.1-0.3,0.1
			c-1,0.6-1.5,1.8-1.1,3C567.6,67,569,67.6,570.2,67.1z"/>
		<path id="XMLID_181_" class="st3" d="M549.1,26c-0.8,0.4-1.3,1.3-1.2,2.3c0.1,1.3,1.3,2.3,2.6,2.1c2.3-0.2,4.6-1,6.6-2.1l-2.3-4.2
			c-1.5,0.8-3.1,1.3-4.8,1.5C549.7,25.7,549.4,25.8,549.1,26z"/>
		<path id="XMLID_180_" class="st3" d="M552.4,52.7c-3.4,0.3-6.7,0.2-10.1-0.4c-0.5-0.1-1.1,0-1.5,0.3c-0.6,0.3-1.1,1-1.2,1.7
			c-0.2,1.3,0.7,2.5,2,2.7c3.7,0.6,7.5,0.8,11.3,0.4c1.3-0.1,2.3-1.3,2.2-2.6C554.8,53.6,553.7,52.6,552.4,52.7z"/>
		<path id="XMLID_179_" class="st3" d="M548.4,41.8c0.1-1.3-0.8-2.5-2.1-2.6c-3.3-0.3-6.4-1.2-9.4-2.7c-0.7-0.4-1.5-0.3-2.2,0
			c-0.4,0.2-0.8,0.6-1,1c-0.6,1.2-0.1,2.6,1.1,3.2c3.5,1.8,7.2,2.8,11.1,3.2C547.2,44.1,548.3,43.1,548.4,41.8z"/>
		<path id="XMLID_178_" class="st3" d="M589.1,103.3c2.4-1.1,4.7-2.2,7-3.5l-2.3-4.2c-2.2,1.2-4.4,2.3-6.7,3.3
			c-0.1,0-0.1,0.1-0.2,0.1c-1.1,0.6-1.5,1.9-1,3.1C586.5,103.3,587.9,103.8,589.1,103.3z"/>
		<path id="XMLID_177_" class="st3" d="M576.5,79.2c2.2-0.9,4.4-2,6.6-3.2l-2.3-4.2c-2,1.1-4.1,2.1-6.2,3c-0.1,0-0.1,0.1-0.2,0.1
			c-1.1,0.6-1.5,1.9-1.1,3C573.9,79.1,575.3,79.7,576.5,79.2z"/>
		<path id="XMLID_176_" class="st3" d="M596.7,114.7c2-0.9,3.9-2,5.9-3l-2.3-4.2c-1.9,1-3.7,2-5.6,2.9c0,0-0.1,0-0.1,0.1
			c-1.1,0.6-1.6,2-1,3.1C594.1,114.8,595.5,115.3,596.7,114.7z"/>
		<path id="XMLID_175_" class="st3" d="M582.8,91.2c2.3-1,4.6-2.1,6.8-3.3l-2.3-4.2c-2.1,1.1-4.2,2.2-6.4,3.2
			c-0.1,0-0.1,0.1-0.2,0.1c-1.1,0.6-1.5,1.9-1,3C580.2,91.2,581.6,91.8,582.8,91.2z"/>
		<path id="XMLID_174_" class="st3" d="M550.7,16.5l-1.5-2.8c-0.4,0.2-0.9,0.1-1.1-0.3l0,0l-2.8,1.5l0,0
			C546.3,16.8,548.7,17.5,550.7,16.5z"/>
		<path id="XMLID_173_" class="st3" d="M544.3,79.8c-3.4-0.2-6.9-0.7-10.2-1.5c-0.6-0.1-1.2,0-1.7,0.2c-0.6,0.3-1,0.9-1.2,1.6
			c-0.3,1.3,0.5,2.6,1.8,2.8c3.6,0.8,7.3,1.3,11,1.6c1.3,0.1,2.4-0.9,2.5-2.2C546.6,81.1,545.6,79.9,544.3,79.8z"/>
		<path id="XMLID_172_" class="st3" d="M533.8,52.6c0.5-1.2,0-2.6-1.2-3.1c-3.1-1.4-6-3.1-8.6-5.2c-0.8-0.6-1.8-0.7-2.6-0.2
			c-0.3,0.1-0.5,0.4-0.7,0.6c-0.8,1-0.6,2.5,0.4,3.3c3,2.3,6.2,4.3,9.7,5.8C531.9,54.3,533.3,53.8,533.8,52.6z"/>
		<path id="XMLID_171_" class="st3" d="M509.6,34.3L509.6,34.3c1.1,1.9,2.3,3.8,3.6,5.5c0.8,1.1,2.3,1.3,3.3,0.5
			c1.1-0.8,1.3-2.3,0.5-3.3c-1.2-1.6-2.2-3.2-3.2-4.9l0,0C513.7,32.1,509.6,34.3,509.6,34.3z"/>
		<path id="XMLID_170_" class="st3" d="M538.2,65.4c-3.3-0.7-6.6-1.7-9.8-3c-0.7-0.3-1.4-0.2-2,0.1c-0.5,0.3-0.8,0.7-1.1,1.2
			c-0.5,1.2,0.1,2.6,1.3,3.1c3.4,1.4,7,2.5,10.7,3.2c1.3,0.3,2.5-0.6,2.8-1.9C540.3,66.9,539.5,65.6,538.2,65.4z"/>
		<path id="XMLID_169_" class="st3" d="M525.6,33.7c0.9,1,2.4,1.1,3.4,0.2c1-0.9,1.1-2.4,0.2-3.4c-1.3-1.5-2.5-3.2-3.5-5l0,0
			l-4.2,2.3C522.6,30,524,31.9,525.6,33.7z"/>
		<path id="XMLID_168_" class="st3" d="M554.5,125.3c3.6-0.2,7.3-0.5,10.9-1.1c1.3-0.2,2.2-1.4,2-2.7c-0.2-1.3-1.4-2.2-2.7-2
			c-3.4,0.5-7,0.9-10.4,1c-0.4,0-0.7,0.1-1,0.3c-0.8,0.4-1.3,1.3-1.2,2.2C552,124.4,553.1,125.4,554.5,125.3z"/>
		<path id="XMLID_167_" class="st3" d="M568.2,110c3.6-0.7,7.2-1.6,10.6-2.8c1.3-0.4,1.9-1.7,1.5-3c-0.4-1.3-1.7-1.9-3-1.5
			c-3.3,1.1-6.7,1.9-10.1,2.6c-0.2,0-0.5,0.1-0.7,0.2c-0.9,0.5-1.4,1.5-1.2,2.6C565.7,109.4,566.9,110.2,568.2,110z"/>
		<path id="XMLID_166_" class="st3" d="M576.1,122.1c3.5-0.9,7-2,10.5-3.2c1.2-0.4,1.9-1.8,1.4-3c-0.4-1.2-1.8-1.9-3-1.4
			c-3.3,1.2-6.7,2.2-10,3c-0.2,0.1-0.4,0.1-0.6,0.2c-0.9,0.5-1.4,1.6-1.2,2.7C573.5,121.6,574.8,122.4,576.1,122.1z"/>
		<path id="XMLID_165_" class="st3" d="M564.8,78c-3.3,0.8-6.8,1.4-10.2,1.7c-0.3,0-0.7,0.1-0.9,0.3c-0.8,0.4-1.3,1.3-1.2,2.3
			c0.1,1.3,1.3,2.3,2.6,2.2c3.7-0.3,7.4-0.9,10.9-1.8c1.3-0.3,2.1-1.6,1.7-2.9C567.4,78.5,566.1,77.7,564.8,78z"/>
		<path id="XMLID_164_" class="st3" d="M558.6,65.5c-3.4,0.6-6.8,0.9-10.2,0.9c-0.4,0-0.8,0.1-1.2,0.3c-0.7,0.4-1.2,1.2-1.2,2.1
			c0,1.3,1,2.4,2.4,2.4c3.7,0,7.5-0.3,11.1-1c1.3-0.2,2.1-1.5,1.9-2.8C561.1,66.1,559.9,65.3,558.6,65.5z"/>
		<path id="XMLID_163_" class="st3" d="M571.1,90.4c-3.3,1-6.7,1.7-10.2,2.2c-0.3,0-0.5,0.1-0.8,0.3c-0.9,0.5-1.4,1.4-1.2,2.5
			c0.2,1.3,1.4,2.2,2.7,2c3.6-0.6,7.2-1.4,10.8-2.4c1.3-0.4,2-1.7,1.6-3C573.7,90.8,572.4,90,571.1,90.4z"/>
	</g>
	<g id="XMLID_116_">
		<path id="XMLID_161_" class="st0" d="M380.3,279.9c-3.4-0.7-6.9-1.3-10.3-1.7c-0.8-0.1-1.5-0.6-1.8-1.2c-0.2-0.4-0.3-0.9-0.3-1.4
			c0.1-1.3,1.3-2.3,2.6-2.1c3.6,0.4,7.3,1,10.8,1.8c1.3,0.3,2.1,1.6,1.8,2.8C382.9,279.3,381.6,280.1,380.3,279.9z"/>
		<path id="XMLID_160_" class="st0" d="M369.1,289.3c-0.1,1.3-1.3,2.3-2.6,2.2c-3.4-0.3-6.9-0.3-10.4-0.2c-0.9,0-1.8-0.5-2.2-1.2
			c-0.2-0.3-0.3-0.7-0.3-1c-0.1-1.3,0.9-2.4,2.3-2.5c3.7-0.2,7.4-0.1,11,0.2C368.2,286.8,369.2,288,369.1,289.3z"/>
		<path id="XMLID_159_" class="st0" d="M362,275.3c0,1.3-1.1,2.4-2.4,2.4c-3.5,0-7,0.2-10.4,0.6c-1,0.1-1.9-0.4-2.4-1.2
			c-0.1-0.3-0.2-0.5-0.3-0.9c-0.2-1.3,0.8-2.5,2.1-2.6c3.6-0.4,7.3-0.7,11-0.7C360.9,272.9,362,274,362,275.3z"/>
		<path id="XMLID_158_" class="st0" d="M375.5,260.4c1.3,0.2,2.2,1.4,2,2.7c-0.2,1.3-1.4,2.2-2.7,2c-3.5-0.5-7-0.8-10.4-0.9
			c-0.9,0-1.6-0.5-2-1.2c-0.2-0.4-0.3-0.8-0.3-1.2c0.1-1.3,1.2-2.3,2.5-2.3C368.3,259.6,371.9,259.9,375.5,260.4z"/>
		<path id="XMLID_157_" class="st0" d="M340.7,277.3c0.3,1.3-0.5,2.6-1.8,2.9c-3.4,0.8-6.7,1.8-10,2.9c-1.1,0.4-2.3-0.1-2.9-1.1
			c-0.1-0.1-0.1-0.2-0.2-0.3c-0.4-1.2,0.2-2.6,1.4-3c3.4-1.2,7-2.3,10.5-3.1C339.1,275.2,340.4,276,340.7,277.3z"/>
		<path id="XMLID_156_" class="st0" d="M407,269.5c3.3,1.5,6.6,3.2,9.7,5c1.1,0.7,1.5,2.1,0.9,3.3c-0.7,1.1-2.1,1.5-3.3,0.9
			c-3-1.7-6.1-3.4-9.3-4.8c-0.5-0.2-0.9-0.6-1.1-1c-0.3-0.6-0.4-1.4-0.1-2.1C404.4,269.5,405.8,269,407,269.5z"/>
		<path id="XMLID_155_" class="st0" d="M398.6,295.6c3.3,1.6,6.5,3.5,9.5,5.6c1.1,0.7,1.4,2.2,0.6,3.3c-0.7,1.1-2.2,1.4-3.3,0.6
			c-2.9-1.9-5.9-3.7-9-5.3c-0.5-0.2-0.8-0.6-1-1c-0.4-0.7-0.4-1.5,0-2.2C396,295.5,397.4,295,398.6,295.6z"/>
		<path id="XMLID_154_" class="st0" d="M362,316c0,1.3-1,2.4-2.4,2.4c-3.4,0-6.8,0.4-10.2,1.1c-1.1,0.2-2.1-0.3-2.6-1.2
			c-0.1-0.2-0.2-0.4-0.2-0.7c-0.3-1.3,0.6-2.5,1.9-2.8c3.6-0.7,7.4-1.1,11.1-1.2C360.9,313.6,362,314.6,362,316z"/>
		<path id="XMLID_153_" class="st0" d="M373.4,306.1c-3.4-0.7-6.8-1.1-10.3-1.2c-0.9,0-1.6-0.5-2-1.2c-0.2-0.4-0.3-0.8-0.3-1.2
			c0.1-1.3,1.2-2.3,2.5-2.3c3.7,0.2,7.4,0.6,11,1.3c1.3,0.3,2.1,1.5,1.9,2.8C375.9,305.5,374.6,306.4,373.4,306.1z"/>
		<path id="XMLID_152_" class="st0" d="M386.9,295.8c-3.3-1.1-6.6-2.1-10-2.8c-0.7-0.1-1.3-0.6-1.6-1.2c-0.3-0.5-0.4-1.1-0.2-1.6
			c0.3-1.3,1.5-2.1,2.8-1.8c3.6,0.8,7.2,1.8,10.6,3c1.2,0.4,1.9,1.8,1.5,3C389.5,295.6,388.1,296.2,386.9,295.8z"/>
		<path id="XMLID_151_" class="st0" d="M351.8,356.4C351.8,356.4,351.8,356.4,351.8,356.4c2.4-1.3,5-2,7.8-2.1c1.3,0,2.4,1,2.5,2.3
			c0,1.3-1,2.4-2.3,2.5c-2,0.1-3.9,0.6-5.7,1.6l0,0L351.8,356.4z"/>
		<path id="XMLID_150_" class="st0" d="M354.9,302.6c0.1,1.3-0.8,2.5-2.1,2.6c-3.4,0.4-6.8,1-10.2,1.9c-1.1,0.3-2.2-0.2-2.7-1.2
			c-0.1-0.2-0.2-0.3-0.2-0.5c-0.3-1.3,0.4-2.6,1.7-2.9c3.6-1,7.2-1.7,10.9-2.1C353.5,300.3,354.7,301.3,354.9,302.6z"/>
		<path id="XMLID_149_" class="st0" d="M353.7,259.5c1.3-0.1,2.4,0.9,2.5,2.2c0.1,1.3-0.9,2.4-2.2,2.5c-3.5,0.2-7,0.6-10.4,1.1
			c-1,0.2-2-0.4-2.5-1.2c-0.1-0.2-0.2-0.5-0.3-0.8c-0.2-1.3,0.7-2.5,2-2.7C346.4,260.1,350.1,259.7,353.7,259.5z"/>
		<path id="XMLID_148_" class="st0" d="M314.7,271.5c0.6,1.2,0.1,2.6-1.1,3.2c-1.7,0.8-3.3,1.6-4.9,2.5l0,0l-2.3-4.2l0,0
			c1.7-0.9,3.4-1.8,5.1-2.6C312.8,269.9,314.2,270.4,314.7,271.5z"/>
		<path id="XMLID_147_" class="st0" d="M391.9,278.1c3.5,1.2,6.9,2.5,10.2,4.1c1.2,0.6,1.7,2,1.2,3.2c-0.6,1.2-2,1.7-3.2,1.2
			c-3.1-1.5-6.4-2.8-9.7-3.9c-0.6-0.2-1.1-0.6-1.3-1.1c-0.3-0.6-0.4-1.2-0.2-1.9C389.3,278.4,390.7,277.7,391.9,278.1z"/>
		<path id="XMLID_146_" class="st0" d="M411.8,287.4c3.1,1.9,6.2,4,9,6.2c1,0.8,1.2,2.3,0.4,3.3c-0.8,1-2.3,1.2-3.3,0.4
			c-2.7-2.1-5.6-4.1-8.6-5.9c-0.4-0.2-0.7-0.5-0.9-0.9c-0.4-0.7-0.4-1.6,0.1-2.4C409.2,287.1,410.7,286.7,411.8,287.4z"/>
		<path id="XMLID_145_" class="st0" d="M332.4,320.7C332.4,320.7,332.4,320.7,332.4,320.7c1.8-1,3.6-1.9,5.5-2.6
			c1.2-0.5,2.6,0.1,3.1,1.3c0.5,1.2-0.1,2.6-1.3,3.1c-1.7,0.7-3.4,1.5-5,2.4l0,0L332.4,320.7L332.4,320.7z"/>
		<path id="XMLID_144_" class="st0" d="M317.1,282.8c1.2-0.6,2.6-0.1,3.2,1.1c0.6,1.2,0.1,2.6-1.1,3.2c-1.3,0.7-2.7,1.3-4,2.1l0,0
			l-2.3-4.2l0,0C314.3,284.2,315.7,283.5,317.1,282.8z"/>
		<path id="XMLID_143_" class="st0" d="M320.2,269.2c-0.5-1.2,0.2-2.6,1.4-3.1c3.4-1.3,6.9-2.4,10.4-3.3c1.3-0.3,2.6,0.4,2.9,1.7
			c0.3,1.3-0.4,2.6-1.7,2.9c-3.4,0.9-6.7,1.9-10,3.1c-1.1,0.4-2.4-0.1-2.9-1.1C320.3,269.5,320.3,269.3,320.2,269.2z"/>
		<path id="XMLID_142_" class="st0" d="M332.9,293.9c-0.1-0.1-0.1-0.3-0.2-0.4c-0.4-1.3,0.3-2.6,1.5-3c3.5-1.1,7.1-2,10.7-2.7
			c1.3-0.2,2.5,0.6,2.8,1.9c0.2,1.3-0.6,2.5-1.9,2.8c-3.4,0.6-6.8,1.5-10.1,2.5C334.6,295.4,333.4,294.9,332.9,293.9z"/>
		<path id="XMLID_141_" class="st0" d="M330.9,306.3c1.2-0.5,2.6,0,3.1,1.2c0.5,1.2,0,2.6-1.2,3.1c-1.6,0.7-3.2,1.5-4.7,2.3l0,0
			l-2.3-4.2l0,0C327.5,307.9,329.2,307.1,330.9,306.3z"/>
		<path id="XMLID_140_" class="st0" d="M327.2,295.7c0.6,1.2,0,2.6-1.1,3.2c-1.5,0.7-2.9,1.4-4.4,2.2l0,0l-2.3-4.2
			c1.5-0.8,3.1-1.6,4.6-2.3C325.2,294,326.6,294.5,327.2,295.7z"/>
		<path id="XMLID_139_" class="st0" d="M396.8,265.5c1.2,0.4,1.9,1.8,1.5,3c-0.4,1.2-1.8,1.9-3,1.5c-3.3-1.1-6.7-2.1-10.1-2.9
			c-0.7-0.2-1.2-0.6-1.5-1.2c-0.3-0.5-0.4-1.1-0.2-1.7c0.3-1.3,1.6-2.1,2.9-1.8C389.8,263.3,393.4,264.3,396.8,265.5z"/>
		<path id="XMLID_138_" class="st0" d="M383.6,351.3c1.5,1.7,2.8,3.6,3.9,5.6l-4.2,2.3c-0.9-1.7-2-3.3-3.3-4.7
			c-0.1-0.1-0.2-0.3-0.3-0.4c-0.5-1-0.3-2.2,0.5-2.9C381.3,350.3,382.8,350.4,383.6,351.3z"/>
		<path id="XMLID_137_" class="st0" d="M395.7,344.6c1.4,1.8,2.6,3.8,3.7,5.8l-4.2,2.3c-1-1.8-2.1-3.6-3.3-5.2
			c-0.1-0.1-0.1-0.2-0.2-0.3c-0.6-1-0.3-2.3,0.6-3C393.4,343.4,394.9,343.6,395.7,344.6z"/>
		<path id="XMLID_136_" class="st0" d="M407.6,337.9c1.4,1.9,2.6,3.9,3.8,6l-4.2,2.3c-1-1.9-2.2-3.8-3.5-5.5
			c-0.1-0.1-0.1-0.2-0.2-0.2c-0.6-1-0.3-2.4,0.7-3.1C405.3,336.6,406.8,336.9,407.6,337.9z"/>
		<path id="XMLID_135_" class="st0" d="M367.6,361.1c-0.4-0.8-0.4-1.9,0.2-2.6c0.8-1,2.3-1.2,3.3-0.4c1.8,1.5,3.3,3.3,4.4,5.3
			l-4.2,2.3c-0.8-1.5-1.9-2.8-3.2-3.9C367.9,361.6,367.7,361.4,367.6,361.1z"/>
		<path id="XMLID_134_" class="st0" d="M384.8,340.4c-2.7-2.1-5.6-3.8-8.7-5.1c-0.5-0.2-0.9-0.6-1.1-1c-0.3-0.6-0.4-1.4-0.1-2.1
			c0.5-1.2,1.9-1.8,3.1-1.2c3.5,1.5,6.7,3.4,9.7,5.8c1,0.8,1.2,2.3,0.4,3.3C387.3,341,385.8,341.2,384.8,340.4z"/>
		<path id="XMLID_133_" class="st0" d="M375.6,347.4c-0.6,1.2-2,1.6-3.2,1c-2.9-1.5-6.1-2.5-9.4-2.8c-0.8-0.1-1.5-0.6-1.8-1.2
			c-0.2-0.4-0.3-0.9-0.3-1.4c0.1-1.3,1.3-2.3,2.6-2.1c3.9,0.4,7.6,1.5,11,3.3C375.7,344.8,376.2,346.3,375.6,347.4z"/>
		<path id="XMLID_132_" class="st0" d="M443.1,317.8c1.4,2.2,2.8,4.4,4,6.7l-4.2,2.3c-1.2-2.2-2.5-4.3-3.8-6.4
			c0-0.1-0.1-0.1-0.1-0.2c-0.6-1.1-0.3-2.5,0.8-3.1C440.9,316.4,442.3,316.7,443.1,317.8z"/>
		<path id="XMLID_131_" class="st0" d="M419.4,331.2c1.4,2,2.6,4.1,3.8,6.3l-4.2,2.3c-1.1-2-2.3-4-3.6-5.8c0-0.1-0.1-0.1-0.1-0.2
			c-0.6-1.1-0.3-2.4,0.7-3.1C417.2,329.8,418.7,330.1,419.4,331.2z"/>
		<path id="XMLID_130_" class="st0" d="M455.6,312.3c1.2,1.9,2.3,3.8,3.3,5.7l-4.2,2.3c-1-1.9-2.1-3.7-3.2-5.5c0,0,0-0.1-0.1-0.1
			c-0.6-1.1-0.2-2.5,0.8-3.2C453.5,310.8,454.9,311.2,455.6,312.3z"/>
		<path id="XMLID_129_" class="st0" d="M431.2,324.5c1.4,2.1,2.7,4.3,3.9,6.5l-4.2,2.3c-1.1-2.1-2.4-4.2-3.7-6.1
			c0-0.1-0.1-0.1-0.1-0.2c-0.6-1.1-0.3-2.4,0.8-3.1C429,323.1,430.5,323.4,431.2,324.5z"/>
		<path id="XMLID_128_" class="st0" d="M363.7,369.9l-2.8,1.5c-0.2-0.4-0.7-0.5-1.1-0.3l0,0l-1.5-2.8l0,0
			C360.3,367.3,362.7,368,363.7,369.9z"/>
		<path id="XMLID_127_" class="st0" d="M392.7,313.2c-3-1.7-6.2-3.1-9.4-4.3c-0.6-0.2-1-0.6-1.3-1.1c-0.3-0.6-0.4-1.3-0.1-2
			c0.5-1.2,1.8-1.9,3.1-1.4c3.5,1.3,6.9,2.8,10.1,4.6c1.2,0.6,1.6,2.1,0.9,3.2C395.3,313.4,393.9,313.8,392.7,313.2z"/>
		<path id="XMLID_126_" class="st0" d="M369.1,330.4c-0.2,1.3-1.4,2.2-2.7,2c-3.3-0.5-6.7-0.6-10.1-0.3c-1,0.1-1.9-0.4-2.3-1.2
			c-0.1-0.3-0.2-0.6-0.3-0.9c-0.1-1.3,0.8-2.5,2.1-2.6c3.8-0.4,7.5-0.3,11.3,0.3C368.5,327.9,369.3,329.1,369.1,330.4z"/>
		<path id="XMLID_125_" class="st0" d="M338.9,332.6C338.9,332.6,338.9,332.6,338.9,332.6c1.9-1.1,3.9-2,6-2.7
			c1.2-0.5,2.6,0.2,3.1,1.4c0.5,1.2-0.2,2.6-1.4,3.1c-1.8,0.7-3.6,1.5-5.4,2.4l0,0L338.9,332.6L338.9,332.6z"/>
		<path id="XMLID_124_" class="st0" d="M379.7,322c-3.2-1.2-6.5-2.2-9.9-2.8c-0.7-0.1-1.3-0.6-1.7-1.2c-0.3-0.5-0.4-1-0.3-1.6
			c0.2-1.3,1.5-2.1,2.8-1.9c3.7,0.7,7.3,1.7,10.7,3.1c1.2,0.5,1.8,1.9,1.4,3.1C382.3,321.9,381,322.5,379.7,322z"/>
		<path id="XMLID_123_" class="st0" d="M352,341.8c1.3-0.3,2.6,0.4,2.9,1.7c0.3,1.3-0.4,2.6-1.7,2.9c-1.9,0.5-3.8,1.3-5.6,2.3l0,0
			l-2.3-4.2C347.5,343.4,349.7,342.5,352,341.8z"/>
		<path id="XMLID_122_" class="st0" d="M425.9,280.5c3,2.1,5.8,4.4,8.6,6.8c1,0.9,1.1,2.4,0.2,3.4c-0.9,1-2.4,1.1-3.4,0.2
			c-2.6-2.3-5.4-4.5-8.2-6.5c-0.3-0.2-0.5-0.5-0.7-0.8c-0.4-0.8-0.4-1.8,0.2-2.5C423.3,280,424.8,279.7,425.9,280.5z"/>
		<path id="XMLID_121_" class="st0" d="M429.1,300.8c2.6,2.5,5.1,5.3,7.4,8.1c0.8,1,0.7,2.5-0.3,3.4c-1,0.8-2.5,0.7-3.4-0.3
			c-2.2-2.7-4.6-5.3-7.1-7.7c-0.2-0.2-0.3-0.4-0.4-0.6c-0.5-0.9-0.4-2,0.4-2.8C426.7,299.9,428.2,299.9,429.1,300.8z"/>
		<path id="XMLID_120_" class="st0" d="M442.3,294.9c2.5,2.7,4.9,5.5,7.1,8.4c0.8,1,0.6,2.5-0.4,3.3c-1,0.8-2.5,0.6-3.3-0.4
			c-2.1-2.8-4.4-5.5-6.8-8c-0.1-0.2-0.3-0.3-0.4-0.5c-0.5-0.9-0.3-2.1,0.5-2.9C439.9,293.9,441.4,294,442.3,294.9z"/>
		<path id="XMLID_119_" class="st0" d="M409,325.8c-2.4-2.5-4.9-4.8-7.7-7c-0.3-0.2-0.5-0.5-0.6-0.7c-0.4-0.8-0.4-1.8,0.2-2.6
			c0.8-1,2.3-1.2,3.3-0.4c2.9,2.3,5.7,4.8,8.2,7.5c0.9,1,0.9,2.5-0.1,3.4C411.4,326.8,409.9,326.8,409,325.8z"/>
		<path id="XMLID_118_" class="st0" d="M397,333c-2.5-2.3-5.2-4.5-8.1-6.3c-0.4-0.2-0.6-0.5-0.8-0.9c-0.4-0.7-0.4-1.7,0.1-2.4
			c0.7-1.1,2.2-1.4,3.3-0.7c3.1,2,6.1,4.3,8.8,6.9c1,0.9,1,2.4,0.1,3.4C399.4,333.8,397.9,333.9,397,333z"/>
		<path id="XMLID_117_" class="st0" d="M421,318.9c-2.3-2.6-4.7-5.1-7.3-7.4c-0.2-0.2-0.4-0.4-0.5-0.6c-0.5-0.9-0.4-1.9,0.3-2.7
			c0.9-1,2.4-1.1,3.4-0.2c2.7,2.4,5.4,5.1,7.8,7.8c0.9,1,0.8,2.5-0.2,3.4C423.3,320,421.8,319.8,421,318.9z"/>
	</g>
	<g id="XMLID_68_">
		
			<rect id="XMLID_115_" x="335.4" y="490.5" transform="matrix(-0.8781 0.4786 -0.4786 -0.8781 997.036 839.4446)" class="st0" width="112.4" height="112.4"/>
		<g id="XMLID_69_">
			<path id="XMLID_114_" class="st4" d="M403.5,557.2c-1.2,3.3-2.6,6.5-4.2,9.6c-0.4,0.7-0.3,1.6,0,2.2c0.2,0.4,0.6,0.8,1,1
				c1.2,0.6,2.6,0.1,3.2-1.1c1.6-3.3,3.1-6.6,4.4-10.1c0.5-1.2-0.2-2.6-1.4-3.1C405.3,555.4,403.9,556,403.5,557.2z"/>
			<path id="XMLID_113_" class="st4" d="M389.5,561.5c-1.2-0.6-2.6-0.2-3.2,1c-1.6,3-3.5,6-5.5,8.8c-0.6,0.8-0.6,1.8-0.2,2.5
				c0.2,0.3,0.4,0.6,0.7,0.8c1.1,0.8,2.6,0.5,3.3-0.5c2.1-3,4.1-6.1,5.8-9.3C391,563.6,390.6,562.2,389.5,561.5z"/>
			<path id="XMLID_112_" class="st4" d="M397.4,575.1c-1.1-0.7-2.6-0.4-3.3,0.7c-1.9,2.9-4,5.7-6.2,8.4c-0.6,0.8-0.7,1.8-0.3,2.7
				c0.1,0.3,0.3,0.5,0.6,0.7c1,0.8,2.5,0.7,3.4-0.3c2.3-2.8,4.5-5.8,6.5-8.8C398.8,577.3,398.5,575.9,397.4,575.1z"/>
			<path id="XMLID_111_" class="st4" d="M417.2,571.8c0.6-1.2,0-2.6-1.2-3.2c-1.2-0.6-2.6,0-3.2,1.2c-1.5,3.2-3.1,6.3-4.9,9.3
				c-0.4,0.7-0.4,1.6,0,2.4c0.2,0.4,0.5,0.7,0.9,0.9c1.1,0.7,2.6,0.3,3.3-0.8C414,578.3,415.7,575.1,417.2,571.8z"/>
			<path id="XMLID_110_" class="st4" d="M384.2,592c-0.9-0.9-2.4-1-3.4-0.1c-2.5,2.4-5.2,4.7-7.9,6.8c-0.9,0.7-1.2,2-0.6,3
				c0.1,0.1,0.1,0.2,0.2,0.3c0.8,1,2.3,1.2,3.3,0.4c2.9-2.2,5.7-4.6,8.3-7.2C385,594.4,385.1,592.9,384.2,592z"/>
			<path id="XMLID_109_" class="st4" d="M426.6,540.4c0.5-3.6,0.9-7.3,1.1-10.9c0.1-1.3-1-2.4-2.3-2.5c-1.3-0.1-2.4,1-2.5,2.3
				c-0.2,3.5-0.5,7-1,10.4c-0.1,0.5,0,1,0.3,1.5c0.3,0.6,1,1.1,1.7,1.2C425.2,542.6,426.4,541.7,426.6,540.4z"/>
			<path id="XMLID_108_" class="st4" d="M400.1,533.4c0.4-3.6,0.6-7.3,0.5-11c0-1.3-1.1-2.4-2.4-2.3c-1.3,0-2.4,1.1-2.3,2.4
				c0.1,3.5-0.1,7-0.4,10.4c-0.1,0.5,0.1,1,0.3,1.4c0.4,0.7,1,1.1,1.8,1.2C398.8,535.6,400,534.7,400.1,533.4z"/>
			<path id="XMLID_107_" class="st4" d="M363.2,553c-1.1-0.7-2.6-0.4-3.3,0.7c-1.9,2.9-4,5.5-6.4,8c-0.8,0.8-0.9,1.9-0.4,2.8
				c0.1,0.2,0.3,0.4,0.4,0.6c0.9,0.9,2.4,0.9,3.4,0c2.6-2.7,5-5.6,7-8.7C364.6,555.2,364.3,553.8,363.2,553z"/>
			<path id="XMLID_106_" class="st4" d="M377.6,548.9c-1.3,3.2-2.8,6.3-4.5,9.3c-0.4,0.7-0.4,1.6,0,2.3c0.2,0.4,0.5,0.7,0.9,0.9
				c1.1,0.7,2.6,0.3,3.3-0.9c1.9-3.2,3.5-6.5,4.8-10c0.5-1.2-0.1-2.6-1.3-3.1C379.5,547,378.1,547.6,377.6,548.9z"/>
			<path id="XMLID_105_" class="st4" d="M393.6,543.1c-0.8,3.4-1.8,6.7-3.1,9.9c-0.3,0.7-0.2,1.4,0.1,2c0.3,0.5,0.7,0.9,1.2,1.1
				c1.2,0.5,2.6-0.1,3.1-1.4c1.3-3.4,2.4-7,3.3-10.5c0.3-1.3-0.5-2.6-1.8-2.9C395.2,541.1,393.9,541.8,393.6,543.1z"/>
			<path id="XMLID_104_" class="st4" d="M323.7,539.7L323.7,539.7c2.4-1.3,4.4-3.1,6-5.4c0.8-1.1,0.5-2.6-0.6-3.3
				c-1.1-0.7-2.6-0.5-3.3,0.6c-1.1,1.6-2.6,3-4.4,3.9l0,0L323.7,539.7L323.7,539.7z"/>
			<path id="XMLID_103_" class="st4" d="M370.6,566.3c-1-0.8-2.5-0.7-3.4,0.3c-2.2,2.7-4.6,5.2-7.1,7.5c-0.8,0.8-1,2-0.5,2.9
				c0.1,0.2,0.2,0.3,0.3,0.5c0.9,1,2.4,1.1,3.4,0.2c2.7-2.5,5.3-5.2,7.6-8C371.8,568.6,371.6,567.1,370.6,566.3z"/>
			<path id="XMLID_102_" class="st4" d="M406.1,590.6c0.8-1.1,0.5-2.6-0.5-3.3c-1.1-0.8-2.6-0.5-3.3,0.5c-2.1,2.8-4.3,5.6-6.6,8.2
				c-0.7,0.8-0.8,1.9-0.3,2.7c0.1,0.2,0.3,0.5,0.5,0.6c1,0.9,2.5,0.8,3.4-0.2C401.7,596.4,404,593.6,406.1,590.6z"/>
			<path id="XMLID_101_" class="st4" d="M374.9,616.8c-0.7-1.1-2.2-1.5-3.3-0.8c-1.6,1-3.2,1.9-4.8,2.8l0,0l2.3,4.2l0,0
				c1.7-0.9,3.4-1.9,5-2.9C375.2,619.4,375.6,618,374.9,616.8z"/>
			<path id="XMLID_100_" class="st4" d="M411.2,548.4c0.9-3.5,1.6-7.2,2.1-10.8c0.2-1.3-0.7-2.5-2-2.7c-1.3-0.2-2.5,0.7-2.7,2
				c-0.5,3.4-1.1,6.9-2,10.3c-0.2,0.6-0.1,1.2,0.2,1.7c0.3,0.6,0.8,1,1.5,1.2C409.6,550.5,410.9,549.7,411.2,548.4z"/>
			<path id="XMLID_99_" class="st4" d="M414.2,526.7c0.1-3.7,0-7.3-0.3-11c-0.1-1.3-1.3-2.3-2.6-2.2c-1.3,0.1-2.3,1.3-2.2,2.6
				c0.3,3.5,0.4,7,0.3,10.4c0,0.4,0.1,0.8,0.3,1.2c0.4,0.7,1.2,1.2,2,1.2C413,529,414.1,528,414.2,526.7z"/>
			<path id="XMLID_98_" class="st4" d="M343.2,575.4L343.2,575.4c1.8-1,3.5-2,5.2-3.2c1.1-0.7,1.4-2.2,0.6-3.3
				c-0.7-1.1-2.2-1.4-3.3-0.6c-1.5,1-3.1,2-4.8,2.9l0,0L343.2,575.4L343.2,575.4z"/>
			<path id="XMLID_97_" class="st4" d="M366.7,608.7c1.1-0.7,1.5-2.2,0.8-3.3c-0.7-1.1-2.1-1.5-3.3-0.8c-1.3,0.8-2.6,1.5-3.9,2.3
				l0,0l2.3,4.2l0,0C364,610.3,365.4,609.5,366.7,608.7z"/>
			<path id="XMLID_96_" class="st4" d="M379.8,613.5c0.8,1.1,2.3,1.3,3.3,0.5c2.9-2.2,5.7-4.6,8.4-7c1-0.9,1-2.4,0.1-3.4
				c-0.9-1-2.4-1-3.4-0.1c-2.6,2.4-5.3,4.6-8,6.7c-1,0.7-1.2,2-0.7,3C379.7,613.3,379.8,613.4,379.8,613.5z"/>
			<path id="XMLID_95_" class="st4" d="M365.9,589.5c0.1,0.1,0.2,0.3,0.3,0.4c0.8,1,2.3,1.2,3.4,0.3c2.8-2.3,5.5-4.9,8-7.5
				c0.9-1,0.8-2.5-0.1-3.4c-1-0.9-2.5-0.9-3.4,0.1c-2.4,2.5-4.9,4.9-7.6,7.1C365.6,587.2,365.4,588.5,365.9,589.5z"/>
			<path id="XMLID_94_" class="st4" d="M354.5,584.4c1.1-0.7,1.4-2.2,0.7-3.3c-0.7-1.1-2.2-1.4-3.3-0.7c-1.5,0.9-3,1.9-4.5,2.7l0,0
				l2.3,4.2c0,0,0,0,0,0C351.3,586.4,352.9,585.4,354.5,584.4z"/>
			<path id="XMLID_93_" class="st4" d="M361.4,593.3c-0.7-1.1-2.2-1.5-3.3-0.8c-1.4,0.9-2.8,1.7-4.2,2.5l0,0l2.3,4.2
				c1.5-0.8,3-1.7,4.5-2.6C361.7,595.9,362.1,594.4,361.4,593.3z"/>
			<path id="XMLID_92_" class="st4" d="M424.5,551.2c0.3-1.3-0.5-2.6-1.7-2.9c-1.3-0.3-2.6,0.5-2.9,1.7c-0.8,3.4-1.8,6.8-3,10
				c-0.2,0.7-0.2,1.4,0.2,1.9c0.3,0.5,0.7,0.9,1.3,1.1c1.2,0.4,2.6-0.2,3-1.5C422.6,558.2,423.6,554.7,424.5,551.2z"/>
			<path id="XMLID_91_" class="st4" d="M345.2,515.7c-0.6-2.2-1.5-4.3-2.6-6.3l-4.2,2.3c0.9,1.7,1.7,3.5,2.2,5.3
				c0,0.2,0.1,0.3,0.2,0.5c0.5,1,1.7,1.5,2.8,1.1C344.8,518.3,345.6,517,345.2,515.7z"/>
			<path id="XMLID_90_" class="st4" d="M357.3,509.2c-0.8-2.2-1.7-4.3-2.9-6.3l-4.2,2.3c1,1.8,1.9,3.7,2.6,5.6
				c0,0.1,0.1,0.2,0.2,0.3c0.6,1,1.8,1.5,2.9,1.1C357.1,511.8,357.8,510.5,357.3,509.2z"/>
			<path id="XMLID_89_" class="st4" d="M369.4,502.9c-0.9-2.2-1.9-4.3-3-6.4l-4.2,2.3c1,1.9,2,3.9,2.8,5.9c0,0.1,0.1,0.2,0.1,0.3
				c0.6,1,1.8,1.5,3,1.1C369.3,505.5,369.9,504.1,369.4,502.9z"/>
			<path id="XMLID_88_" class="st4" d="M328.3,523.9c0.4,0.8,1.3,1.3,2.3,1.2c1.3-0.1,2.3-1.3,2.1-2.6c-0.2-2.3-1-4.6-2.1-6.6
				l-4.2,2.3c0.8,1.5,1.3,3.1,1.5,4.8C328,523.3,328.1,523.6,328.3,523.9z"/>
			<path id="XMLID_87_" class="st4" d="M355,520.7c0.3,3.4,0.2,6.7-0.4,10.1c-0.1,0.5,0,1.1,0.3,1.5c0.3,0.6,1,1.1,1.7,1.2
				c1.3,0.2,2.5-0.7,2.7-2c0.6-3.7,0.8-7.5,0.4-11.3c-0.1-1.3-1.3-2.3-2.6-2.2C355.9,518.2,354.9,519.4,355,520.7z"/>
			<path id="XMLID_86_" class="st4" d="M344.1,524.6c-1.3-0.1-2.5,0.8-2.6,2.1c-0.3,3.3-1.2,6.4-2.7,9.4c-0.4,0.7-0.3,1.5,0,2.2
				c0.2,0.4,0.6,0.8,1,1c1.2,0.6,2.6,0.1,3.2-1.1c1.8-3.5,2.8-7.2,3.2-11.1C346.4,525.9,345.4,524.7,344.1,524.6z"/>
			<path id="XMLID_85_" class="st4" d="M405.6,484c-1.1-2.4-2.2-4.7-3.5-7l-4.2,2.3c1.2,2.2,2.3,4.4,3.3,6.7c0,0.1,0.1,0.1,0.1,0.2
				c0.6,1.1,1.9,1.5,3.1,1C405.6,486.6,406.1,485.2,405.6,484z"/>
			<path id="XMLID_84_" class="st4" d="M381.5,496.5c-0.9-2.2-2-4.4-3.2-6.6l-4.2,2.3c1.1,2,2.1,4.1,3,6.2c0,0.1,0.1,0.1,0.1,0.2
				c0.6,1.1,1.9,1.5,3,1.1C381.4,499.2,382,497.8,381.5,496.5z"/>
			<path id="XMLID_83_" class="st4" d="M417,476.4c-0.9-2-2-3.9-3-5.9l-4.2,2.3c1,1.9,2,3.7,2.9,5.6c0,0,0,0.1,0.1,0.1
				c0.6,1.1,2,1.6,3.1,1C417.1,479,417.6,477.6,417,476.4z"/>
			<path id="XMLID_82_" class="st4" d="M393.6,490.3c-1-2.3-2.1-4.6-3.3-6.8l-4.2,2.3c1.1,2.1,2.2,4.2,3.2,6.4
				c0,0.1,0.1,0.1,0.1,0.2c0.6,1.1,1.9,1.5,3,1C393.5,492.9,394.1,491.5,393.6,490.3z"/>
			<path id="XMLID_81_" class="st4" d="M318.8,522.4l-2.8,1.5c0.2,0.4,0.1,0.9-0.3,1.1l0,0l1.5,2.8l0,0
				C319.1,526.7,319.8,524.3,318.8,522.4z"/>
			<path id="XMLID_80_" class="st4" d="M382.2,528.7c-0.2,3.4-0.7,6.9-1.5,10.2c-0.1,0.6,0,1.2,0.2,1.7c0.3,0.6,0.9,1,1.6,1.2
				c1.3,0.3,2.6-0.5,2.8-1.8c0.8-3.6,1.3-7.3,1.6-11c0.1-1.3-0.9-2.4-2.2-2.5C383.4,526.4,382.3,527.4,382.2,528.7z"/>
			<path id="XMLID_79_" class="st4" d="M354.9,539.2c-1.2-0.5-2.6,0-3.1,1.2c-1.4,3.1-3.1,6-5.2,8.6c-0.6,0.8-0.7,1.8-0.2,2.6
				c0.1,0.3,0.4,0.5,0.6,0.7c1,0.8,2.5,0.6,3.3-0.4c2.3-3,4.3-6.2,5.8-9.7C356.7,541.2,356.1,539.8,354.9,539.2z"/>
			<path id="XMLID_78_" class="st4" d="M336.7,563.5L336.7,563.5c1.9-1.1,3.8-2.3,5.5-3.6c1.1-0.8,1.3-2.3,0.5-3.3
				c-0.8-1.1-2.3-1.3-3.3-0.5c-1.6,1.2-3.2,2.2-4.9,3.2l0,0L336.7,563.5L336.7,563.5z"/>
			<path id="XMLID_77_" class="st4" d="M367.7,534.9c-0.7,3.3-1.7,6.6-3,9.8c-0.3,0.7-0.2,1.4,0.1,2c0.3,0.5,0.7,0.8,1.2,1.1
				c1.2,0.5,2.6-0.1,3.1-1.3c1.4-3.4,2.5-7,3.2-10.7c0.3-1.3-0.6-2.5-1.9-2.8C369.2,532.7,368,533.6,367.7,534.9z"/>
			<path id="XMLID_76_" class="st4" d="M336,547.4c1-0.9,1.1-2.4,0.2-3.4c-0.9-1-2.4-1.1-3.4-0.2c-1.5,1.3-3.2,2.5-5,3.5l0,0
				l2.3,4.2C332.3,550.4,334.3,549,336,547.4z"/>
			<path id="XMLID_75_" class="st4" d="M427.6,518.6c-0.2-3.6-0.5-7.3-1.1-10.9c-0.2-1.3-1.4-2.2-2.7-2c-1.3,0.2-2.2,1.4-2,2.7
				c0.5,3.4,0.9,7,1,10.4c0,0.4,0.1,0.7,0.3,1c0.4,0.8,1.3,1.3,2.2,1.2C426.7,521,427.7,519.9,427.6,518.6z"/>
			<path id="XMLID_74_" class="st4" d="M412.3,504.8c-0.7-3.6-1.6-7.2-2.8-10.6c-0.4-1.3-1.7-1.9-3-1.5c-1.3,0.4-1.9,1.7-1.5,3
				c1.1,3.3,1.9,6.7,2.6,10.1c0,0.2,0.1,0.5,0.2,0.7c0.5,0.9,1.5,1.4,2.6,1.2C411.7,507.4,412.5,506.1,412.3,504.8z"/>
			<path id="XMLID_73_" class="st4" d="M424.4,496.9c-0.9-3.5-2-7-3.2-10.5c-0.4-1.2-1.8-1.9-3-1.4c-1.2,0.4-1.9,1.8-1.4,3
				c1.2,3.3,2.2,6.7,3,10c0.1,0.2,0.1,0.4,0.2,0.6c0.5,0.9,1.6,1.4,2.7,1.2C423.9,499.5,424.7,498.2,424.4,496.9z"/>
			<path id="XMLID_72_" class="st4" d="M380.4,508.2c0.8,3.3,1.4,6.8,1.7,10.2c0,0.3,0.1,0.7,0.3,0.9c0.4,0.8,1.3,1.3,2.3,1.2
				c1.3-0.1,2.3-1.3,2.2-2.6c-0.3-3.7-0.9-7.4-1.8-10.9c-0.3-1.3-1.6-2.1-2.9-1.7C380.8,505.6,380,506.9,380.4,508.2z"/>
			<path id="XMLID_71_" class="st4" d="M367.8,514.5c0.6,3.4,0.9,6.8,0.9,10.2c0,0.4,0.1,0.8,0.3,1.2c0.4,0.7,1.2,1.2,2.1,1.2
				c1.3,0,2.4-1,2.4-2.4c0-3.7-0.3-7.5-1-11.1c-0.2-1.3-1.5-2.1-2.8-1.9C368.5,511.9,367.6,513.2,367.8,514.5z"/>
			<path id="XMLID_70_" class="st4" d="M392.7,501.9c1,3.3,1.7,6.7,2.2,10.2c0,0.3,0.1,0.5,0.3,0.8c0.5,0.9,1.4,1.4,2.5,1.2
				c1.3-0.2,2.2-1.4,2-2.7c-0.6-3.6-1.4-7.2-2.4-10.8c-0.4-1.3-1.7-2-3-1.6C393.1,499.4,392.4,500.7,392.7,501.9z"/>
		</g>
	</g>
	<path id="XMLID_58_" class="st3" d="M420.2,716.4l2.8,5.2l-99,54l-2.8-5.2L420.2,716.4z M314.8,758.7l2.8,5.2l99-54l-2.8-5.2
		L314.8,758.7z M308.5,747l2.8,5.2l99-54l-2.8-5.2L308.5,747z M302.1,735.3l2.8,5.2l99-54l-2.8-5.2L302.1,735.3z M295.7,723.6
		l2.8,5.2l99-54l-2.8-5.2L295.7,723.6z M289.4,712l2.8,5.2l99-54l-2.8-5.2L289.4,712z M283,700.3l2.8,5.2l99-54l-2.8-5.2L283,700.3z
		 M276.6,688.6l2.8,5.2l99-54l-2.8-5.2L276.6,688.6z M270.2,676.9l2.8,5.2l99-54l-2.8-5.2L270.2,676.9z"/>
	<g id="XMLID_46_">
		
			<rect id="XMLID_57_" x="174" y="194.4" transform="matrix(-0.8781 0.4786 -0.4786 -0.8781 552.2261 360.5412)" class="st2" width="112.4" height="112.4"/>
		<path id="XMLID_47_" class="st5" d="M213,324.2l-5.2,2.8l-54-99l5.2-2.8L213,324.2z M170.7,218.8l-5.2,2.8l54,99l5.2-2.8
			L170.7,218.8z M182.4,212.4l-5.2,2.8l54,99l5.2-2.8L182.4,212.4z M194.1,206.1l-5.2,2.8l54,99l5.2-2.8L194.1,206.1z M205.8,199.7
			l-5.2,2.8l54,99l5.2-2.8L205.8,199.7z M217.5,193.3l-5.2,2.8l54,99l5.2-2.8L217.5,193.3z M229.2,187l-5.2,2.8l54,99l5.2-2.8
			L229.2,187z M240.9,180.6l-5.2,2.8l54,99l5.2-2.8L240.9,180.6z M252.5,174.2l-5.2,2.8l54,99l5.2-2.8L252.5,174.2z"/>
	</g>
	<g id="XMLID_43_">
		
			<rect id="XMLID_45_" x="487.9" y="535.5" transform="matrix(-0.8781 0.4786 -0.4786 -0.8781 1304.937 850.809)" class="st5" width="112.4" height="112.4"/>
		<path id="XMLID_44_" class="st0" d="M565.7,515.9l-97.9,53.3l53.3,97.9C492.3,613,512.1,545.7,565.7,515.9z"/>
	</g>
	<path id="XMLID_42_" class="st5" d="M108.2,381.1l-97.9,53.3l53.3,97.9C34.7,478.2,54.6,410.9,108.2,381.1z"/>
	<g id="XMLID_39_">
		
			<rect id="XMLID_41_" x="272.7" y="140.6" transform="matrix(-0.8781 0.4786 -0.4786 -0.8781 711.8588 212.2729)" class="st3" width="112.4" height="112.4"/>
		<circle id="XMLID_40_" class="st0" cx="328.9" cy="196.8" r="56.1"/>
	</g>
	<g id="XMLID_36_">
		
			<rect id="XMLID_38_" x="685.3" y="427.9" transform="matrix(-0.8781 0.4786 -0.4786 -0.8781 1624.2061 554.269)" class="st1" width="112.4" height="112.4"/>
		<path id="XMLID_37_" class="st0" d="M719.9,559.9l97.9-53.3l-53.3-97.9C793.3,462.7,773.5,530.1,719.9,559.9z"/>
	</g>
	<path id="XMLID_35_" class="st0" d="M315.5,523.6l97.9-53.3L360,372.4C388.9,426.5,369.1,493.9,315.5,523.6z"/>
	<g id="XMLID_32_">
		<path id="XMLID_34_" class="st5" d="M557.6,264.2l53.8,98.7l0.8-0.5c53.6-29.8,73.4-97.1,44.5-151.2l-0.5-0.8L557.6,264.2
			L557.6,264.2z"/>
		<path id="XMLID_33_" class="st1" d="M656.8,210.1l-36.1,19.7c19,34.8,6.1,78.5-28.7,97.5l19.7,36.1
			C666.5,333.5,686.7,264.9,656.8,210.1z"/>
	</g>
	<g id="XMLID_29_">
		
			<rect id="XMLID_31_" x="227.8" y="293.1" transform="matrix(-0.8781 0.4786 -0.4786 -0.8781 700.4961 520.1757)" class="st1" width="112.4" height="112.4"/>
		<path id="XMLID_30_" class="st0" d="M261.5,425.6l36.1-19.7c-19-34.8-6.1-78.5,28.7-97.5l-19.7-36.1
			C251.9,302.2,231.7,370.8,261.5,425.6z"/>
	</g>
	<path id="XMLID_28_" class="st5" d="M216.3,577.6l19.7,36.1c34.8-19,78.5-6.1,97.5,28.7l36.1-19.7
		C339.7,567.9,271.1,547.7,216.3,577.6z"/>
	<g id="XMLID_25_">
		
			<rect id="XMLID_27_" x="631.5" y="329.2" transform="matrix(-0.8781 0.4786 -0.4786 -0.8781 1475.9377 394.6363)" class="st2" width="112.4" height="112.4"/>
		<path id="XMLID_26_" class="st4" d="M764.3,407.9l-19.7-36.1c-34.8,19-78.5,6.1-97.5-28.7l-36.1,19.7
			C640.9,417.6,709.5,437.8,764.3,407.9z"/>
	</g>
	<g id="XMLID_22_">
		<path id="XMLID_24_" class="st3" d="M162.8,479.4l98.7-53.8l-0.5-0.8c-29.8-53.6-97.1-73.4-151.2-44.5l-1.7,0.9
			c-53.6,29.8-73.4,97.1-44.5,151.2l0.5,0.8L162.8,479.4z"/>
		<path id="XMLID_23_" class="st2" d="M108.2,380.5l19.7,36.1c34.8-19,78.5-6.1,97.5,28.7l36.1-19.7
			C231.7,370.8,163,350.6,108.2,380.5z"/>
	</g>
</g>
</svg>
