<?xml version="1.0" encoding="utf-8"?>
<!-- Generator: Adobe Illustrator 19.0.0, SVG Export Plug-In . SVG Version: 6.00 Build 0)  -->
<svg version="1.1" id="Layer_1" xmlns="http://www.w3.org/2000/svg" xmlns:xlink="http://www.w3.org/1999/xlink" x="0px" y="0px"
	 viewBox="0 0 960 279.5" style="enable-background:new 0 0 960 279.5;" xml:space="preserve">
<style type="text/css">
	.st0{fill:#2D3436;}
	.st1{fill:#FFFFFF;}
</style>
<g id="XMLID_3_">
	<path id="XMLID_2_" class="st0" d="M949.4,274.6H10.6c-1.6,0-3-1.4-3-3V7.9c0-1.7,1.3-3,3-3h938.9c1.6,0,3,1.3,3,3v263.7
		C952.4,273.2,951.1,274.6,949.4,274.6z"/>
	<g id="XMLID_1_">
		<g id="XMLID_7_">
			<path id="XMLID_12_" class="st1" d="M197.7,83.6c-16.1-15.3-37.8-23-64.3-23H59.9V74h4.5c4.8,0,8,1.1,9.5,3.3
				c1.1,1.5,2.9,5.7,2.9,16v93.1c0,9.6-1.6,14-2.9,15.9c-0.6,0.8-2.3,3.3-9.5,3.3h-4.5v8.8v4.4h4.5h70.9c26.9,0,48.3-7,63.6-20.8
				c15.4-13.9,23.2-32.7,23.2-55.9C222.1,118.7,213.9,98.9,197.7,83.6z M108.6,200.4c-1.2-1.8-3.1-6.6-3.1-19.3V75.4h23.9
				c19,0,34,6.1,44.5,18c10.7,12.1,16.1,28.6,16.1,49.1c0,19.3-4.9,34.5-14.6,45.5c-9.7,10.9-22.8,16.2-39.9,16.2h-15.4
				C115.9,204.2,110.7,203.5,108.6,200.4z"/>
			<path id="XMLID_11_" class="st1" d="M603.8,201.6c-1.1-1.4-3.1-5.5-4.1-17.2l-7.5-91.9v-0.1c-0.1-1.1-0.1-2.1-0.1-3
				c0-13.2,6.3-15.2,12.4-15.3l4.4-0.1V60.7H566l-45.5,110.1L475.8,60.7h-45.3v12.7l3.8,0.6c6,1,11.3,3.5,15.5,7.7l-8.7,100.5
				c-1.2,11.9-3.3,16.7-4.7,18.6c-2,2.5-5.5,4.2-10.5,4.8l-3.9,0.5v12.8h55.5v-12.6l-3.7-0.7c-10.9-2-15.7-7.7-15.7-18.4
				c0-1.2,0-2.4,0.1-3.7l6.7-73.4l44.6,108.8h10l45.2-109l6.5,78v0.1c0.1,1.3,0.1,2.5,0.1,3.5c0,4.7-0.8,8.1-2.4,10.1
				c-1.6,1.9-4.8,3.3-9.3,4.1l-3.8,0.6V219h62.7v-13l-4.1-0.3C609.1,205.1,605.5,203.8,603.8,201.6z"/>
			<path id="XMLID_9_" class="st1" d="M727.7,73.9L732,74c4.4,0.2,7.4,1.4,8.8,3.5c1,1.5,2.7,5.6,2.7,15.7v88.5
				c-9.8,14.6-22.3,21.7-38.2,21.7c-10.8,0-18.9-3-24.7-9.1c-5.9-6.2-8.8-14.6-8.8-25.7V93.1c0-10.4,1.7-14.4,2.8-15.9
				c1.8-2.6,6.4-3.2,9.9-3.2h4.5V60.6h-63V74h4.5c3.4,0,7.9,0.6,9.6,3.2c1,1.6,2.8,5.7,2.8,16.1v73.4c0,16.6,5,30.2,14.8,40.4
				c9.9,10.3,23.5,15.5,40.5,15.5c16.9,0,32.1-6,45.2-18V219h45.8v-13.3h-4.5c-4.8,0-8.1-1.1-9.6-3.3c-1.3-1.9-2.8-6.2-2.8-15.9
				V93.4c0-9.9,1.6-14.1,2.9-16c1.6-2.2,4.8-3.3,9.6-3.3h4.5V60.7h-61.7L727.7,73.9L727.7,73.9z"/>
			<path id="XMLID_8_" class="st1" d="M891.1,148.6c-5.9-7.6-16.7-16-33.1-25.8c-13.1-7.9-21.6-14.2-25.2-18.9
				c-3.4-4.4-5.1-9.1-5.1-14.4c0-5.4,1.9-9.6,5.7-12.8c4.2-3.4,9.6-5.1,16.6-5.1c7.8,0,14.4,2.4,19.5,7c5.2,4.7,8.1,11.2,9,19.8
				l0.4,4.1h13v-44H880l-1,3.2c-0.1,0.3-0.2,0.6-0.3,0.8c-0.8-0.2-2.5-0.5-5.5-1.5c-8.2-2.8-15.9-4.2-23-4.2
				c-13.2,0-24.2,4-32.4,11.9c-8.4,8-12.7,18.5-12.7,31.1c0,6.4,1.1,12.4,3.1,17.9c2.1,5.5,5.3,10.6,9.6,15.2
				c4.2,4.5,12.2,10.3,24.2,17.7c13.7,8.4,22.9,15.3,27,20.3c3.9,4.7,5.7,9.5,5.7,14.4c0,6.8-2.2,12.1-6.6,16
				c-4.7,4.1-10.8,6.1-18.8,6.1c-8.4,0-15.7-2.9-22-8.8c-6.3-5.9-9.4-13.6-9.5-23.4v-4.5h-13.5v49.3h12.1l1.1-2.9
				c0.7-2,1.4-2.6,1.5-2.8c0.5,0.1,2,0.4,6.8,2c10.9,3.9,20.2,5.9,27.4,5.9c12.9,0,24.1-4.6,33.2-13.7c9.1-9.1,13.7-20.3,13.7-33.2
				C900.3,165.6,897.2,156.5,891.1,148.6z"/>
		</g>
		<path id="XMLID_6_" class="st1" d="M372.5,59.2c-2.5,7-6,13.4-10.2,19C352.5,90.8,340.2,97,324.6,97c-15.4,0-27.6-6-37.2-18.4
			c-4.3-5.6-7.7-12.2-10.1-19.5h-30.9l0.6,1.5c3.9,9.7,9.9,18.5,18.2,26.9c16.2,16.1,36.2,24.2,59.5,24.2c23.4,0,43.5-8.1,59.8-24.2
			c8.3-8.2,14.4-17,18.4-26.9l0.6-1.5H372.5z"/>
		<path id="XMLID_5_" class="st1" d="M274.3,218.9c-1-5.7-1.5-12-1.5-18.6c0-20.7,5-37.4,14.8-49.6c9.7-12.1,22.2-18,38.4-18
			c15.2,0,27.1,6,36.7,18.3c9.7,12.5,14.6,29.5,14.6,50.4c0,6.2-0.5,12.1-1.5,17.5h31.4c1.3-6.1,2-12.4,2-18.8
			c0-22.9-8.2-42.5-24.3-58.4c-16.1-15.8-36-23.8-59.3-23.8c-23.9,0-44.2,7.9-60.3,23.5C249,157,240.9,176.7,240.9,200
			c0,6.5,0.7,12.8,1.9,18.8H274.3z"/>
	</g>
</g>
</svg>
