<?xml version="1.0" encoding="utf-8"?>
<!-- Generator: Adobe Illustrator 19.0.0, SVG Export Plug-In . SVG Version: 6.00 Build 0)  -->
<svg version="1.1" id="Layer_1" xmlns="http://www.w3.org/2000/svg" xmlns:xlink="http://www.w3.org/1999/xlink" x="0px" y="0px"
	 viewBox="0 0 214.1 61.8" style="enable-background:new 0 0 214.1 61.8;" xml:space="preserve">
<style type="text/css">
	.st0{fill:#FFFFFF;}
	.st1{fill:#2D3436;}
</style>
<g id="XMLID_1_">
	<path id="XMLID_2_" class="st0" d="M207.5,60.4H6.6c-1.7,0-3-1.4-3-3v-53c0-1.7,1.3-3,3-3h200.9c1.7,0,3,1.4,3,3v53
		C210.5,59.1,209.2,60.4,207.5,60.4z"/>
	<g id="XMLID_3_">
		<g id="XMLID_7_">
			<path id="XMLID_12_" class="st1" d="M45.2,18.6c-3.5-3.3-8.3-5-14.1-5H15v2.9h1c1,0,1.8,0.2,2.1,0.7c0.2,0.3,0.6,1.2,0.6,3.5
				v20.4c0,2.1-0.3,3.1-0.6,3.5c-0.1,0.2-0.5,0.7-2.1,0.7h-1v1.9v1h1h15.5c5.9,0,10.6-1.5,13.9-4.6c3.4-3,5.1-7.2,5.1-12.2
				C50.6,26.3,48.8,21.9,45.2,18.6z M25.7,44.2c-0.3-0.4-0.7-1.5-0.7-4.2V16.8h5.2c4.2,0,7.4,1.3,9.7,3.9c2.3,2.7,3.5,6.3,3.5,10.8
				c0,4.2-1.1,7.6-3.2,10c-2.1,2.4-5,3.6-8.7,3.6h-3.4C27.3,45,26.2,44.8,25.7,44.2z"/>
			<path id="XMLID_11_" class="st1" d="M134.2,44.4c-0.2-0.3-0.7-1.2-0.9-3.8l-1.6-20.1v0c0-0.2,0-0.5,0-0.7c0-2.9,1.4-3.3,2.7-3.4
				l1,0v-2.9h-9.4l-10,24.1l-9.8-24.1h-9.9v2.8l0.8,0.1c1.3,0.2,2.5,0.8,3.4,1.7l-1.9,22c-0.3,2.6-0.7,3.7-1,4.1
				c-0.4,0.6-1.2,0.9-2.3,1.1l-0.9,0.1v2.8h12.1v-2.8l-0.8-0.1c-2.4-0.4-3.4-1.7-3.4-4c0-0.3,0-0.5,0-0.8l1.5-16.1l9.8,23.8h2.2
				l9.9-23.9l1.4,17.1v0c0,0.3,0,0.6,0,0.8c0,1-0.2,1.8-0.5,2.2c-0.4,0.4-1,0.7-2,0.9l-0.8,0.1v2.8h13.7v-2.8l-0.9-0.1
				C135.3,45.2,134.5,44.9,134.2,44.4z"/>
			<path id="XMLID_9_" class="st1" d="M161.3,16.5l0.9,0c1,0,1.6,0.3,1.9,0.8c0.2,0.3,0.6,1.2,0.6,3.4v19.4
				c-2.1,3.2-4.9,4.7-8.4,4.7c-2.4,0-4.1-0.7-5.4-2c-1.3-1.4-1.9-3.2-1.9-5.6V20.7c0-2.3,0.4-3.2,0.6-3.5c0.4-0.6,1.4-0.7,2.2-0.7h1
				v-2.9H139v2.9h1c0.8,0,1.7,0.1,2.1,0.7c0.2,0.3,0.6,1.2,0.6,3.5v16.1c0,3.6,1.1,6.6,3.2,8.9c2.2,2.3,5.2,3.4,8.9,3.4
				c3.7,0,7-1.3,9.9-3.9v3.1h10v-2.9h-1c-1.1,0-1.8-0.2-2.1-0.7c-0.3-0.4-0.6-1.4-0.6-3.5V20.7c0-2.2,0.3-3.1,0.6-3.5
				c0.3-0.5,1-0.7,2.1-0.7h1v-2.9h-13.5L161.3,16.5L161.3,16.5z"/>
			<path id="XMLID_8_" class="st1" d="M197.1,32.8c-1.3-1.7-3.7-3.5-7.2-5.6c-2.9-1.7-4.7-3.1-5.5-4.1c-0.8-1-1.1-2-1.1-3.2
				c0-1.2,0.4-2.1,1.3-2.8c0.9-0.8,2.1-1.1,3.6-1.1c1.7,0,3.2,0.5,4.3,1.5c1.1,1,1.8,2.4,2,4.3l0.1,0.9h2.8v-9.6h-2.6l-0.2,0.7
				c0,0.1,0,0.1-0.1,0.2c-0.2,0-0.5-0.1-1.2-0.3c-1.8-0.6-3.5-0.9-5-0.9c-2.9,0-5.3,0.9-7.1,2.6c-1.8,1.8-2.8,4-2.8,6.8
				c0,1.4,0.2,2.7,0.7,3.9c0.5,1.2,1.2,2.3,2.1,3.3c0.9,1,2.7,2.3,5.3,3.9c3,1.8,5,3.3,5.9,4.5c0.9,1,1.3,2.1,1.3,3.2
				c0,1.5-0.5,2.6-1.5,3.5c-1,0.9-2.4,1.3-4.1,1.3c-1.9,0-3.4-0.6-4.8-1.9c-1.4-1.3-2.1-3-2.1-5.1v-1h-2.9v10.8h2.7l0.2-0.6
				c0.2-0.4,0.3-0.6,0.3-0.6c0.1,0,0.4,0.1,1.5,0.4c2.4,0.9,4.4,1.3,6,1.3c2.8,0,5.3-1,7.3-3c2-2,3-4.5,3-7.3
				C199.1,36.5,198.4,34.5,197.1,32.8z"/>
		</g>
		<path id="XMLID_6_" class="st1" d="M83.5,13.2c-0.6,1.5-1.3,2.9-2.2,4.2c-2.1,2.8-4.8,4.1-8.3,4.1c-3.4,0-6-1.3-8.1-4
			c-0.9-1.2-1.7-2.7-2.2-4.3h-6.8l0.1,0.3c0.9,2.1,2.2,4.1,4,5.9c3.5,3.5,7.9,5.3,13,5.3c5.1,0,9.5-1.8,13.1-5.3
			c1.8-1.8,3.1-3.7,4-5.9l0.1-0.3H83.5z"/>
		<path id="XMLID_5_" class="st1" d="M62,48.2c-0.2-1.2-0.3-2.6-0.3-4.1c0-4.5,1.1-8.2,3.2-10.9c2.1-2.7,4.9-3.9,8.4-3.9
			c3.3,0,5.9,1.3,8,4c2.1,2.7,3.2,6.5,3.2,11c0,1.4-0.1,2.6-0.3,3.8h6.9c0.3-1.3,0.4-2.7,0.4-4.1c0-5-1.8-9.3-5.3-12.8
			c-3.5-3.5-7.9-5.2-13-5.2c-5.2,0-9.7,1.7-13.2,5.1c-3.5,3.4-5.3,7.7-5.3,12.9c0,1.4,0.1,2.8,0.4,4.1H62z"/>
	</g>
</g>
</svg>
