<?xml version="1.0" encoding="utf-8"?>
<!-- Generator: Adobe Illustrator 19.0.0, SVG Export Plug-In . SVG Version: 6.00 Build 0)  -->
<svg version="1.1" id="Layer_1" xmlns="http://www.w3.org/2000/svg" xmlns:xlink="http://www.w3.org/1999/xlink" x="0px" y="0px"
	 viewBox="0 0 759 724.5" style="enable-background:new 0 0 759 724.5;" xml:space="preserve">
<style type="text/css">
	.st0{fill:#FF92BC;}
	.st1{fill:#0D0601;}
	.st2{fill:#FFAE09;}
	.st3{fill:#CDD59E;}
	.st4{fill:#00BA6C;}
	.st5{fill:none;stroke:#0D0601;stroke-linecap:round;stroke-linejoin:round;stroke-miterlimit:10;}
	.st6{fill:#0076C1;}
	.st7{clip-path:url(#XMLID_54_);}
</style>
<g id="XMLID_388_">
	<g id="XMLID_559_">
		<polygon id="XMLID_377_" class="st0" points="164.7,711.1 15.3,711.1 15.3,561.1 165.2,561.4 		"/>
		<g id="XMLID_561_">
			<g id="XMLID_562_">
				<circle id="XMLID_373_" class="st1" cx="90" cy="636.6" r="64.5"/>
			</g>
		</g>
		<polygon id="XMLID_372_" class="st2" points="114.3,682.7 96.7,661.8 91.9,688.7 85.1,662.2 69.1,684.3 74.5,657.5 50.4,670.5 
			66.9,648.7 39.6,650 64,637.5 38.8,626.8 66.1,626.1 48.1,605.6 73,616.8 65.7,590.5 83.3,611.4 88.1,584.5 94.9,611 110.9,588.8 
			105.5,615.6 129.6,602.6 113.1,624.4 140.4,623.2 116.1,635.7 141.2,646.4 113.9,647 131.9,667.6 107,656.4 		"/>
	</g>
	<g id="XMLID_536_">
		<rect id="XMLID_371_" x="246.8" y="561.1" class="st3" width="149" height="150"/>
		<g id="XMLID_537_">
			<g id="XMLID_553_">
				<path id="XMLID_369_" class="st4" d="M272.9,571.9L272.9,571.9c-1.2,0-2.3,0.9-2.4,2.2c-0.8,5.4-5,9.4-10.3,10.3
					c-1.2,0.2-2.2,1.2-2.2,2.5l0,0c0,1.3,0.9,2.3,2.2,2.5c5.4,0.8,9.6,4.9,10.3,10.3c0.2,1.2,1.2,2.2,2.4,2.2l0,0
					c1.2,0,2.3-0.9,2.4-2.2c0.8-5.4,5.1-9.7,10.4-10.4c1.2-0.2,2.1-1.1,2.1-2.3v-0.1c0-1.2-0.9-2.3-2.2-2.4
					c-5.3-0.7-9.5-5-10.3-10.4C275.2,572.9,274.2,571.9,272.9,571.9z"/>
				<path id="XMLID_368_" class="st4" d="M305.2,571.9L305.2,571.9c-1.2,0-2.3,0.9-2.4,2.2c-0.8,5.4-5,9.4-10.3,10.3
					c-1.2,0.2-2.2,1.2-2.2,2.5l0,0c0,1.3,0.9,2.3,2.2,2.5c5.4,0.8,9.6,4.9,10.3,10.3c0.2,1.2,1.2,2.2,2.4,2.2l0,0
					c1.2,0,2.3-0.9,2.4-2.2c0.8-5.4,5.1-9.7,10.4-10.4c1.2-0.2,2.1-1.1,2.1-2.3v-0.1c0-1.2-0.9-2.3-2.2-2.4
					c-5.3-0.7-9.5-5-10.3-10.4C307.5,572.9,306.4,571.9,305.2,571.9z"/>
				<path id="XMLID_367_" class="st4" d="M337.5,571.9L337.5,571.9c-1.2,0-2.3,0.9-2.4,2.2c-0.8,5.4-5,9.4-10.3,10.3
					c-1.2,0.2-2.2,1.2-2.2,2.5l0,0c0,1.3,0.9,2.3,2.2,2.5c5.4,0.8,9.6,4.9,10.3,10.3c0.2,1.2,1.2,2.2,2.4,2.2l0,0
					c1.2,0,2.3-0.9,2.4-2.2c0.8-5.4,5.1-9.7,10.4-10.4c1.2-0.2,2.1-1.1,2.1-2.3v-0.1c0-1.2-0.9-2.3-2.2-2.4
					c-5.3-0.7-9.5-5-10.3-10.4C339.7,572.9,338.7,571.9,337.5,571.9z"/>
				<path id="XMLID_366_" class="st4" d="M369.8,571.9L369.8,571.9c-1.2,0-2.3,0.9-2.4,2.2c-0.8,5.4-5,9.4-10.3,10.3
					c-1.2,0.2-2.2,1.2-2.2,2.5l0,0c0,1.3,0.9,2.3,2.2,2.5c5.4,0.8,9.6,4.9,10.3,10.3c0.2,1.2,1.2,2.2,2.4,2.2l0,0
					c1.2,0,2.3-0.9,2.4-2.2c0.8-5.4,5.1-9.7,10.4-10.4c1.2-0.2,2.1-1.1,2.1-2.3v-0.1c0-1.2-0.9-2.3-2.2-2.4
					c-5.3-0.7-9.5-5-10.3-10.4C372,572.9,371,571.9,369.8,571.9z"/>
			</g>
			<g id="XMLID_548_">
				<path id="XMLID_365_" class="st4" d="M272.9,605.1L272.9,605.1c-1.2,0-2.3,0.9-2.4,2.2c-0.8,5.4-5,9.4-10.3,10.3
					c-1.2,0.2-2.2,1.2-2.2,2.5l0,0c0,1.3,0.9,2.3,2.2,2.5c5.4,0.8,9.6,4.9,10.3,10.3c0.2,1.2,1.2,2.2,2.4,2.2l0,0
					c1.2,0,2.3-0.9,2.4-2.2c0.8-5.4,5.1-9.7,10.4-10.4c1.2-0.2,2.1-1.1,2.1-2.3V620c0-1.2-0.9-2.3-2.2-2.4c-5.3-0.7-9.5-5-10.3-10.4
					C275.2,606,274.2,605.1,272.9,605.1z"/>
				<path id="XMLID_364_" class="st4" d="M305.2,605.1L305.2,605.1c-1.2,0-2.3,0.9-2.4,2.2c-0.8,5.4-5,9.4-10.3,10.3
					c-1.2,0.2-2.2,1.2-2.2,2.5l0,0c0,1.3,0.9,2.3,2.2,2.5c5.4,0.8,9.6,4.9,10.3,10.3c0.2,1.2,1.2,2.2,2.4,2.2l0,0
					c1.2,0,2.3-0.9,2.4-2.2c0.8-5.4,5.1-9.7,10.4-10.4c1.2-0.2,2.1-1.1,2.1-2.3V620c0-1.2-0.9-2.3-2.2-2.4c-5.3-0.7-9.5-5-10.3-10.4
					C307.5,606,306.4,605.1,305.2,605.1z"/>
				<path id="XMLID_363_" class="st4" d="M337.5,605.1L337.5,605.1c-1.2,0-2.3,0.9-2.4,2.2c-0.8,5.4-5,9.4-10.3,10.3
					c-1.2,0.2-2.2,1.2-2.2,2.5l0,0c0,1.3,0.9,2.3,2.2,2.5c5.4,0.8,9.6,4.9,10.3,10.3c0.2,1.2,1.2,2.2,2.4,2.2l0,0
					c1.2,0,2.3-0.9,2.4-2.2c0.8-5.4,5.1-9.7,10.4-10.4c1.2-0.2,2.1-1.1,2.1-2.3V620c0-1.2-0.9-2.3-2.2-2.4c-5.3-0.7-9.5-5-10.3-10.4
					C339.7,606,338.7,605.1,337.5,605.1z"/>
				<path id="XMLID_362_" class="st4" d="M369.8,605.1L369.8,605.1c-1.2,0-2.3,0.9-2.4,2.2c-0.8,5.4-5,9.4-10.3,10.3
					c-1.2,0.2-2.2,1.2-2.2,2.5l0,0c0,1.3,0.9,2.3,2.2,2.5c5.4,0.8,9.6,4.9,10.3,10.3c0.2,1.2,1.2,2.2,2.4,2.2l0,0
					c1.2,0,2.3-0.9,2.4-2.2c0.8-5.4,5.1-9.7,10.4-10.4c1.2-0.2,2.1-1.1,2.1-2.3V620c0-1.2-0.9-2.3-2.2-2.4c-5.3-0.7-9.5-5-10.3-10.4
					C372,606,371,605.1,369.8,605.1z"/>
			</g>
			<g id="XMLID_543_">
				<path id="XMLID_361_" class="st4" d="M272.9,638.2L272.9,638.2c-1.2,0-2.3,0.9-2.4,2.2c-0.8,5.4-5,9.4-10.3,10.3
					c-1.2,0.2-2.2,1.2-2.2,2.5l0,0c0,1.3,0.9,2.3,2.2,2.5c5.4,0.8,9.6,4.9,10.3,10.3c0.2,1.2,1.2,2.2,2.4,2.2l0,0
					c1.2,0,2.3-0.9,2.4-2.2c0.8-5.4,5.1-9.7,10.4-10.4c1.2-0.2,2.1-1.1,2.1-2.3v-0.1c0-1.2-0.9-2.3-2.2-2.4
					c-5.3-0.7-9.5-5-10.3-10.4C275.2,639.2,274.2,638.2,272.9,638.2z"/>
				<path id="XMLID_360_" class="st4" d="M305.2,638.2L305.2,638.2c-1.2,0-2.3,0.9-2.4,2.2c-0.8,5.4-5,9.4-10.3,10.3
					c-1.2,0.2-2.2,1.2-2.2,2.5l0,0c0,1.3,0.9,2.3,2.2,2.5c5.4,0.8,9.6,4.9,10.3,10.3c0.2,1.2,1.2,2.2,2.4,2.2l0,0
					c1.2,0,2.3-0.9,2.4-2.2c0.8-5.4,5.1-9.7,10.4-10.4c1.2-0.2,2.1-1.1,2.1-2.3v-0.1c0-1.2-0.9-2.3-2.2-2.4
					c-5.3-0.7-9.5-5-10.3-10.4C307.5,639.2,306.4,638.2,305.2,638.2z"/>
				<path id="XMLID_359_" class="st4" d="M337.5,638.2L337.5,638.2c-1.2,0-2.3,0.9-2.4,2.2c-0.8,5.4-5,9.4-10.3,10.3
					c-1.2,0.2-2.2,1.2-2.2,2.5l0,0c0,1.3,0.9,2.3,2.2,2.5c5.4,0.8,9.6,4.9,10.3,10.3c0.2,1.2,1.2,2.2,2.4,2.2l0,0
					c1.2,0,2.3-0.9,2.4-2.2c0.8-5.4,5.1-9.7,10.4-10.4c1.2-0.2,2.1-1.1,2.1-2.3v-0.1c0-1.2-0.9-2.3-2.2-2.4
					c-5.3-0.7-9.5-5-10.3-10.4C339.7,639.2,338.7,638.2,337.5,638.2z"/>
				<path id="XMLID_358_" class="st4" d="M369.8,638.2L369.8,638.2c-1.2,0-2.3,0.9-2.4,2.2c-0.8,5.4-5,9.4-10.3,10.3
					c-1.2,0.2-2.2,1.2-2.2,2.5l0,0c0,1.3,0.9,2.3,2.2,2.5c5.4,0.8,9.6,4.9,10.3,10.3c0.2,1.2,1.2,2.2,2.4,2.2l0,0
					c1.2,0,2.3-0.9,2.4-2.2c0.8-5.4,5.1-9.7,10.4-10.4c1.2-0.2,2.1-1.1,2.1-2.3v-0.1c0-1.2-0.9-2.3-2.2-2.4
					c-5.3-0.7-9.5-5-10.3-10.4C372,639.2,371,638.2,369.8,638.2z"/>
			</g>
			<g id="XMLID_538_">
				<path id="XMLID_357_" class="st4" d="M272.9,671.4L272.9,671.4c-1.2,0-2.3,0.9-2.4,2.2c-0.8,5.4-5,9.4-10.3,10.3
					c-1.2,0.2-2.2,1.2-2.2,2.5l0,0c0,1.3,0.9,2.3,2.2,2.5c5.4,0.8,9.6,4.9,10.3,10.3c0.2,1.2,1.2,2.2,2.4,2.2l0,0
					c1.2,0,2.3-0.9,2.4-2.2c0.8-5.4,5.1-9.7,10.4-10.4c1.2-0.2,2.1-1.1,2.1-2.3v-0.1c0-1.2-0.9-2.3-2.2-2.4
					c-5.3-0.7-9.5-5-10.3-10.4C275.2,672.3,274.2,671.4,272.9,671.4z"/>
				<path id="XMLID_356_" class="st4" d="M305.2,671.4L305.2,671.4c-1.2,0-2.3,0.9-2.4,2.2c-0.8,5.4-5,9.4-10.3,10.3
					c-1.2,0.2-2.2,1.2-2.2,2.5l0,0c0,1.3,0.9,2.3,2.2,2.5c5.4,0.8,9.6,4.9,10.3,10.3c0.2,1.2,1.2,2.2,2.4,2.2l0,0
					c1.2,0,2.3-0.9,2.4-2.2c0.8-5.4,5.1-9.7,10.4-10.4c1.2-0.2,2.1-1.1,2.1-2.3v-0.1c0-1.2-0.9-2.3-2.2-2.4
					c-5.3-0.7-9.5-5-10.3-10.4C307.5,672.3,306.4,671.4,305.2,671.4z"/>
				<path id="XMLID_355_" class="st4" d="M337.5,671.4L337.5,671.4c-1.2,0-2.3,0.9-2.4,2.2c-0.8,5.4-5,9.4-10.3,10.3
					c-1.2,0.2-2.2,1.2-2.2,2.5l0,0c0,1.3,0.9,2.3,2.2,2.5c5.4,0.8,9.6,4.9,10.3,10.3c0.2,1.2,1.2,2.2,2.4,2.2l0,0
					c1.2,0,2.3-0.9,2.4-2.2c0.8-5.4,5.1-9.7,10.4-10.4c1.2-0.2,2.1-1.1,2.1-2.3v-0.1c0-1.2-0.9-2.3-2.2-2.4
					c-5.3-0.7-9.5-5-10.3-10.4C339.7,672.3,338.7,671.4,337.5,671.4z"/>
				<path id="XMLID_354_" class="st4" d="M369.8,671.4L369.8,671.4c-1.2,0-2.3,0.9-2.4,2.2c-0.8,5.4-5,9.4-10.3,10.3
					c-1.2,0.2-2.2,1.2-2.2,2.5l0,0c0,1.3,0.9,2.3,2.2,2.5c5.4,0.8,9.6,4.9,10.3,10.3c0.2,1.2,1.2,2.2,2.4,2.2l0,0
					c1.2,0,2.3-0.9,2.4-2.2c0.8-5.4,5.1-9.7,10.4-10.4c1.2-0.2,2.1-1.1,2.1-2.3v-0.1c0-1.2-0.9-2.3-2.2-2.4
					c-5.3-0.7-9.5-5-10.3-10.4C372,672.3,371,671.4,369.8,671.4z"/>
			</g>
		</g>
	</g>
	<g id="XMLID_534_">
		<polygon id="XMLID_353_" class="st1" points="313.4,111.9 313.4,261.6 463.1,261.6 		"/>
	</g>
	<g id="XMLID_531_">
		<path id="XMLID_352_" class="st4" d="M618.3,72.3v-20h55.7V108h-20C634.3,108,618.3,92.1,618.3,72.3z"/>
		<path id="XMLID_351_" class="st4" d="M658.8,33.4v-20h55.7v55.7h-20C674.8,69.1,658.8,53.1,658.8,33.4z"/>
	</g>
	<g id="XMLID_526_">
		<polygon id="XMLID_350_" class="st0" points="165.2,411.7 15.3,411.3 15.3,261.6 165.1,261.5 		"/>
		<circle id="XMLID_349_" class="st1" cx="92.1" cy="331.5" r="39.5"/>
		<path id="XMLID_348_" class="st5" d="M52.6,411.3c0-21.8,17.7-39.5,39.5-39.5c21.8,0,39.5,17.7,39.5,39.5"/>
		<circle id="XMLID_347_" class="st2" cx="92.1" cy="331.5" r="17.7"/>
	</g>
	<g id="XMLID_511_">
		<rect id="XMLID_346_" x="452.2" y="261.6" class="st3" width="149.7" height="150.1"/>
		<g id="XMLID_512_">
			<g id="XMLID_519_">
				<path id="XMLID_345_" class="st1" d="M532.5,277.9l-3.8,50.5c-0.1,0.9-0.8,1.5-1.7,1.5c-0.8-0.1-1.4-0.7-1.5-1.5l-3.8-50.5
					c-0.2-2.9,2-5.5,4.9-5.7c2.9-0.2,5.5,2,5.7,4.9C532.5,277.4,532.5,277.7,532.5,277.9z"/>
				<path id="XMLID_344_" class="st1" d="M521.8,394.9l3.8-50.5c0.1-0.9,0.8-1.5,1.7-1.5c0.8,0.1,1.4,0.7,1.5,1.5l3.8,50.5
					c0.2,2.9-2,5.5-4.9,5.7c-2.9,0.2-5.5-2-5.7-4.9C521.8,395.5,521.8,395.2,521.8,394.9z"/>
				<path id="XMLID_343_" class="st1" d="M468.5,331.2L519,335c0.9,0.1,1.5,0.8,1.5,1.7c-0.1,0.8-0.7,1.4-1.5,1.5l-50.5,3.8
					c-2.9,0.2-5.5-2-5.7-4.9c-0.2-2.9,2-5.5,4.9-5.7C467.9,331.2,468.2,331.2,468.5,331.2z"/>
				<path id="XMLID_342_" class="st1" d="M585.5,341.9l-50.5-3.8c-0.9-0.1-1.5-0.8-1.5-1.7c0.1-0.8,0.7-1.4,1.5-1.5l50.5-3.8
					c2.9-0.2,5.5,2,5.7,4.9c0.2,2.9-2,5.5-4.9,5.7C586,341.9,585.8,341.9,585.5,341.9z"/>
				<path id="XMLID_276_" class="st1" d="M532.6,352.7h-11c0-5.9-4.7-10.6-10.6-10.6v-11c5.9,0,10.6-4.7,10.6-10.6h11
					c0,5.9,4.7,10.6,10.6,10.6v11C537.4,342.1,532.6,346.8,532.6,352.7z"/>
			</g>
			<g id="XMLID_513_">
				<path id="XMLID_341_" class="st1" d="M572.2,298.9l-38.4,33c-0.7,0.6-1.7,0.5-2.2-0.2c-0.5-0.6-0.5-1.5,0-2.1l33-38.4
					c1.9-2.2,5.3-2.5,7.5-0.6s2.5,5.3,0.6,7.5C572.6,298.5,572.4,298.7,572.2,298.9z"/>
				<path id="XMLID_340_" class="st1" d="M481.9,374.1l38.4-33c0.7-0.6,1.7-0.5,2.2,0.2c0.5,0.6,0.5,1.5,0,2.1l-33,38.4
					c-1.9,2.2-5.3,2.5-7.5,0.6c-2.2-1.9-2.5-5.3-0.6-7.5C481.5,374.5,481.7,374.3,481.9,374.1z"/>
				<path id="XMLID_339_" class="st1" d="M489.3,291.4l33,38.4c0.6,0.7,0.5,1.7-0.2,2.2c-0.6,0.5-1.5,0.5-2.1,0l-38.4-33
					c-2.2-1.9-2.5-5.3-0.6-7.5c1.9-2.2,5.3-2.5,7.5-0.6C488.9,291,489.1,291.2,489.3,291.4z"/>
				<path id="XMLID_338_" class="st1" d="M564.5,381.7l-33-38.4c-0.6-0.7-0.5-1.7,0.2-2.2c0.6-0.5,1.5-0.5,2.1,0l38.4,33
					c2.2,1.9,2.5,5.3,0.6,7.5c-1.9,2.2-5.3,2.5-7.5,0.6C564.9,382.1,564.7,381.9,564.5,381.7z"/>
				<path id="XMLID_337_" class="st1" d="M519.5,351.9l-7.8-7.8c4.1-4.1,4.1-10.8,0-15l7.8-7.8c4.1,4.1,10.8,4.1,15,0l7.8,7.8
					c-4.1,4.1-4.1,10.8,0,15l-7.8,7.8C530.3,347.8,523.6,347.8,519.5,351.9z"/>
			</g>
		</g>
	</g>
	<g id="XMLID_495_">
		<g id="XMLID_509_">
			<polygon id="XMLID_336_" class="st3" points="314.9,411.7 165.2,411.7 165.1,261.5 315,261.6 			"/>
		</g>
		<g id="XMLID_496_">
			<g id="XMLID_506_">
				<path id="XMLID_335_" class="st6" d="M243.9,299.3l-1.6,33.8c-0.1,1.5-1.3,2.7-2.8,2.6c-1.4-0.1-2.5-1.2-2.6-2.6l-1.6-33.8
					c-0.1-2.4,1.7-4.4,4.1-4.6c2.4-0.1,4.4,1.7,4.6,4.1C243.9,299.1,243.9,299.2,243.9,299.3z"/>
				<path id="XMLID_334_" class="st6" d="M235.2,385.4l1.6-33.8c0.1-1.5,1.3-2.7,2.8-2.6c1.4,0.1,2.5,1.2,2.6,2.6l1.6,33.8
					c0.1,2.4-1.7,4.4-4.1,4.6c-2.4,0.1-4.4-1.7-4.6-4.1C235.2,385.7,235.2,385.6,235.2,385.4z"/>
			</g>
			<g id="XMLID_503_">
				<path id="XMLID_333_" class="st6" d="M196.5,338l33.8,1.6c1.5,0.1,2.7,1.3,2.6,2.8c-0.1,1.4-1.2,2.5-2.6,2.6l-33.8,1.6
					c-2.4,0.1-4.4-1.7-4.6-4.1c-0.1-2.4,1.7-4.4,4.1-4.6C196.2,338,196.4,338,196.5,338z"/>
				<path id="XMLID_332_" class="st6" d="M282.6,346.7l-33.8-1.6c-1.5-0.1-2.7-1.3-2.6-2.8c0.1-1.4,1.2-2.5,2.6-2.6l33.8-1.6
					c2.4-0.1,4.4,1.7,4.6,4.1c0.1,2.4-1.7,4.4-4.1,4.6C282.9,346.7,282.8,346.7,282.6,346.7z"/>
			</g>
			<g id="XMLID_500_">
				<path id="XMLID_331_" class="st6" d="M206,369.8l25-22.7c1.1-1,2.8-0.9,3.8,0.2c0.9,1,0.9,2.6,0,3.7l-22.7,25
					c-1.6,1.8-4.4,1.9-6.1,0.3c-1.8-1.6-1.9-4.4-0.3-6.1C205.8,370,205.9,369.9,206,369.8z"/>
				<path id="XMLID_330_" class="st6" d="M273.1,315l-25,22.7c-1.1,1-2.8,0.9-3.8-0.2c-0.9-1-0.9-2.6,0-3.7l22.7-25
					c1.6-1.8,4.4-1.9,6.1-0.3c1.8,1.6,1.9,4.4,0.3,6.1C273.3,314.8,273.2,314.9,273.1,315z"/>
			</g>
			<g id="XMLID_497_">
				<path id="XMLID_329_" class="st6" d="M266.9,375.9l-22.7-25c-1-1.1-0.9-2.8,0.2-3.8c1-0.9,2.6-0.9,3.7,0l25,22.7
					c1.8,1.6,1.9,4.4,0.3,6.1c-1.6,1.8-4.4,1.9-6.1,0.3C267.1,376.1,267,376,266.9,375.9z"/>
				<path id="XMLID_328_" class="st6" d="M212.2,308.9l22.7,25c1,1.1,0.9,2.8-0.2,3.8c-1,0.9-2.6,0.9-3.7,0L206,315
					c-1.8-1.6-1.9-4.4-0.3-6.1c1.6-1.8,4.4-1.9,6.1-0.3C212,308.7,212.1,308.8,212.2,308.9z"/>
			</g>
		</g>
	</g>
	<g id="XMLID_487_">
		<path id="XMLID_327_" class="st1" d="M677,299.9L677,299.9c-8,0-14.1,7.1-12.9,15.1l5.9,38.9c0.2,1.3,0.2,2.6,0,3.9l-8.2,53.9
			h30.5l-8.2-53.9c-0.2-1.3-0.2-2.6,0-3.9l5.9-38.9C691.1,307,685,299.9,677,299.9z"/>
		<path id="XMLID_326_" class="st1" d="M702.7,299.9L702.7,299.9c-8,0-14.1,7.1-12.9,15.1l5.9,38.9c0.2,1.3,0.2,2.6,0,3.9l-8.2,53.9
			h30.5l-8.2-53.9c-0.2-1.3-0.2-2.6,0-3.9l5.9-38.9C716.9,307,710.7,299.9,702.7,299.9z"/>
		<path id="XMLID_325_" class="st1" d="M728.5,299.9L728.5,299.9c-8,0-14.1,7.1-12.9,15.1l5.9,38.9c0.2,1.3,0.2,2.6,0,3.9l-8.2,53.9
			h30.5l-8.2-53.9c-0.2-1.3-0.2-2.6,0-3.9l5.9-38.9C742.6,307,736.5,299.9,728.5,299.9z"/>
		<g id="XMLID_488_">
			<circle id="XMLID_324_" class="st1" cx="677.3" cy="277.3" r="10.8"/>
			<circle id="XMLID_323_" class="st1" cx="703.7" cy="277.3" r="10.8"/>
			<circle id="XMLID_322_" class="st1" cx="730.2" cy="277.3" r="10.8"/>
		</g>
	</g>
	<g id="XMLID_478_">
		<g id="XMLID_483_">
			<path id="XMLID_321_" class="st1" d="M179.5,599.3L179.5,599.3c-8,0-14.1,7.1-12.9,15.1l5.9,38.9c0.2,1.3,0.2,2.6,0,3.9
				l-8.2,53.9h30.5l-8.2-53.9c-0.2-1.3-0.2-2.6,0-3.9l5.9-38.9C193.6,606.4,187.5,599.3,179.5,599.3z"/>
			<path id="XMLID_320_" class="st1" d="M205.2,599.3L205.2,599.3c-8,0-14.1,7.1-12.9,15.1l5.9,38.9c0.2,1.3,0.2,2.6,0,3.9
				l-8.2,53.9h30.5l-8.2-53.9c-0.2-1.3-0.2-2.6,0-3.9l5.9-38.9C219.4,606.4,213.2,599.3,205.2,599.3z"/>
			<path id="XMLID_319_" class="st1" d="M231,599.3L231,599.3c-8,0-14.1,7.1-12.9,15.1l5.9,38.9c0.2,1.3,0.2,2.6,0,3.9l-8.2,53.9
				h30.5l-8.2-53.9c-0.2-1.3-0.2-2.6,0-3.9l5.9-38.9C245.1,606.4,239,599.3,231,599.3z"/>
		</g>
		<g id="XMLID_479_">
			<circle id="XMLID_318_" class="st1" cx="178.8" cy="580.3" r="10.8"/>
			<circle id="XMLID_317_" class="st1" cx="205.2" cy="580.3" r="10.8"/>
			<circle id="XMLID_316_" class="st1" cx="231.7" cy="580.3" r="10.8"/>
		</g>
	</g>
	<g id="XMLID_473_">
		<g id="XMLID_475_">
			<path id="XMLID_275_" class="st1" d="M642.2,264.2h-18.1c0-9.3-7.5-16.8-16.8-16.8v-18.1c9.3,0,16.8-7.5,16.8-16.8h18.1
				c0,9.3,7.5,16.8,16.8,16.8v18.1C649.7,247.5,642.2,255,642.2,264.2z"/>
			<path id="XMLID_315_" class="st1" d="M675.6,230.9h-18.1c0-9.3-7.5-16.8-16.8-16.8V196c9.3,0,16.8-7.5,16.8-16.8h18.1
				c0,9.3,7.5,16.8,16.8,16.8v18.1C683.1,214.1,675.6,221.6,675.6,230.9z"/>
		</g>
		<path id="XMLID_314_" class="st0" d="M573.7,208.2h-21.6c0-11.2-9.1-20.3-20.3-20.3v-21.6c11.2,0,20.3-9.1,20.3-20.3h21.6
			c0,11.2,9.1,20.3,20.3,20.3v21.6C582.8,187.9,573.7,197,573.7,208.2z"/>
	</g>
	<g id="XMLID_427_">
		<rect id="XMLID_298_" x="15.3" y="411.7" class="st1" width="150" height="149.8"/>
		<g id="XMLID_447_">
			<rect id="XMLID_297_" x="165.2" y="411.7" class="st4" width="149.7" height="149.8"/>
			<path id="XMLID_296_" class="st0" d="M284.6,442.2v49.4c0,21.9-17.8,39.7-39.7,39.7h-49.4"/>
			<path id="XMLID_295_" class="st1" d="M195.5,531.3v-49.4c0-21.9,17.8-39.7,39.7-39.7h49.4"/>
		</g>
		<g id="XMLID_439_">
			<polygon id="XMLID_294_" class="st6" points="701.4,561.6 551.7,561.6 551.7,411.7 701.4,411.7 			"/>
			<g id="XMLID_440_">
				<g id="XMLID_441_">
					<g id="XMLID_442_">
						<path id="XMLID_274_" class="st3" d="M647.6,541.9h-76.4v-76.4c0-22.8,18.5-41.3,41.3-41.3h76.4v76.4
							C688.8,523.4,670.4,541.9,647.6,541.9z"/>
						<path id="XMLID_443_" class="st4" d="M588.1,523.6c4.1-42.9,38.3-77.1,81.1-81.1C665.2,485.3,631,519.5,588.1,523.6z"/>
					</g>
				</g>
			</g>
		</g>
		<g id="XMLID_428_">
			<g id="XMLID_432_">
				<rect id="XMLID_292_" x="314.9" y="411.7" class="st6" width="150" height="149.8"/>
				<g id="XMLID_433_">
					<path id="XMLID_273_" class="st2" d="M390.4,487h-38.2c-10.3,0-18.7-8.4-18.7-18.7v-19.5c0-10.3,8.4-18.7,18.7-18.7h19.5
						c10.3,0,18.7,8.4,18.7,18.7V487z"/>
					<path id="XMLID_272_" class="st2" d="M389.8,487H428c10.3,0,18.7-8.4,18.7-18.7v-19.5c0-10.3-8.4-18.7-18.7-18.7h-19.5
						c-10.3,0-18.7,8.4-18.7,18.7V487z"/>
					<path id="XMLID_271_" class="st2" d="M389.8,486.4H428c10.3,0,18.7,8.4,18.7,18.7v19.5c0,10.3-8.4,18.7-18.7,18.7h-19.5
						c-10.3,0-18.7-8.4-18.7-18.7V486.4z"/>
					<path id="XMLID_270_" class="st2" d="M390.4,486.4h-38.2c-10.3,0-18.7,8.4-18.7,18.7v19.5c0,10.3,8.4,18.7,18.7,18.7h19.5
						c10.3,0,18.7-8.4,18.7-18.7V486.4z"/>
				</g>
			</g>
			<g id="XMLID_429_">
				<line id="XMLID_291_" class="st5" x1="427" y1="449.9" x2="353.2" y2="523.6"/>
				<line id="XMLID_290_" class="st5" x1="353.2" y1="449.9" x2="427" y2="523.6"/>
			</g>
		</g>
	</g>
	<g id="XMLID_421_">
		<g id="XMLID_423_">
			<path id="XMLID_289_" class="st2" d="M446.8,95.3V68.4h62.5V131h-26.8C462.8,131,446.8,115,446.8,95.3z"/>
			<path id="XMLID_288_" class="st2" d="M402.6,139.5v-26.8h62.5v62.5h-26.8C418.6,175.2,402.6,159.2,402.6,139.5z"/>
			<path id="XMLID_287_" class="st4" d="M358.4,183.7v-26.8h62.5v62.5h-26.8C374.4,219.4,358.4,203.4,358.4,183.7z"/>
		</g>
		<line id="XMLID_286_" class="st5" x1="492.2" y1="84.7" x2="387.4" y2="189.6"/>
	</g>
	<g id="XMLID_389_">
		<defs>
			<polygon id="XMLID_277_" points="165.1,261.5 15.3,261.3 15.3,111.6 165,111.6 			"/>
		</defs>
		<clipPath id="XMLID_54_">
			<use xlink:href="#XMLID_277_"  style="overflow:visible;"/>
		</clipPath>
		<g id="XMLID_392_" class="st7">
			<g id="XMLID_419_">
				<polygon id="XMLID_285_" class="st2" points="165.1,261.5 15.3,261.3 15.3,111.6 165,111.6 				"/>
			</g>
			<g id="XMLID_414_">
				<line id="XMLID_284_" class="st5" x1="-2.2" y1="257.6" x2="165.2" y2="257.6"/>
				<line id="XMLID_283_" class="st5" x1="-2.2" y1="250.8" x2="165.2" y2="250.8"/>
				<line id="XMLID_282_" class="st5" x1="-2.2" y1="243.9" x2="165.2" y2="243.9"/>
				<line id="XMLID_281_" class="st5" x1="-2.2" y1="237" x2="165.2" y2="237"/>
			</g>
			<g id="XMLID_393_">
				<ellipse id="XMLID_280_" class="st6" cx="90.2" cy="216.5" rx="19.1" ry="18.6"/>
				<ellipse id="XMLID_279_" cx="90.2" cy="177.2" rx="19.1" ry="18.6"/>
				<path id="XMLID_278_" class="st4" d="M51.8,121.9c1.1,19.7,17.8,35.5,38.4,35.5c20.6,0,37.4-15.7,38.4-35.5H51.8z"/>
			</g>
		</g>
	</g>
</g>
</svg>
