<?xml version="1.0" encoding="utf-8"?>
<!-- Generator: Adobe Illustrator 19.0.0, SVG Export Plug-In . SVG Version: 6.00 Build 0)  -->
<svg version="1.1" id="Layer_1" xmlns="http://www.w3.org/2000/svg" xmlns:xlink="http://www.w3.org/1999/xlink" x="0px" y="0px"
	 viewBox="0 0 1118.8 659.7" style="enable-background:new 0 0 1118.8 659.7;" xml:space="preserve">
<style type="text/css">
	.st0{opacity:0.75;fill:#8CC63F;}
	.st1{fill:none;stroke:#FFFFFF;stroke-width:3;stroke-miterlimit:10;}
</style>
<image style="overflow:visible;" width="1600" height="1200" id="XMLID_3_" xlink:href="C:\Users\Asrysweb Studio\Downloads\original-b45e880e468cbe6fce0b8cf50865470e.jpg"  transform="matrix(1 0 0 1 2633.3333 -528.1744)">
</image>
<rect id="XMLID_1_" x="0" class="st0" width="1118.8" height="659.7"/>
<g id="XMLID_6_">
	<path id="XMLID_11_" class="st1" d="M617.8,180.2c-17.3,13.5-34.7,28.2-44.9,47.6c-10.6,20.1-12.8,43.6-13.3,66.3
		c-2.5,102.2,22.8,205,72.5,294.4c8.9,16,19.2,32.2,35,41.3c13.5,7.8,29.5,9.6,45.1,11.2c33.7,3.5,67.5,7,101.2,10.5
		c29,3,58.8,6,86.9-1.5c33.3-8.8,61.1-31.4,87-54.2c104.5-92.3,195.9-199.5,270.6-317.2c24.9-39.3,48.9-85.1,37.9-130.3
		c-5.3-21.8-18.4-41.1-34.4-56.8c-53.1-52.1-133-64.9-207.3-65.9c-72.8-1-170.3-1.4-237.6,29.7C747.7,87,677.8,133.5,617.8,180.2z"
		/>
	<path id="XMLID_10_" class="st1" d="M757,561.9c12.2,9.7,28.3,12.8,43.8,14.3c19,1.8,39.5,1.3,55.1-9.6
		c11.2-7.9,18.5-20.1,24.9-32.3c7.4-13.9,14.4-28.7,15.1-44.5c0.7-15.8-6.3-32.9-20.6-39.7c-8.6-4.1-18.4-4-27.9-3.6
		c-19.1,0.8-38.1,2.8-57,5.8c-21.9,3.5-54.1,12.7-58.4,38.4C728.1,513.3,739.1,547.7,757,561.9z"/>
	<path id="XMLID_9_" class="st1" d="M734.7,573.2c16.4,12.6,36.1,20.3,55.8,26.5c11.7,3.7,24,6.9,36.2,5.7c8.7-0.9,17-3.9,25.1-7.3
		c45-19.1,84.5-49.1,121.7-80.8c10.2-8.7,20.3-17.6,28.3-28.3c11.7-15.6,18.4-34.4,23.6-53.2c5.6-20.6,9.5-42.7,2.9-63
		c-9.2-28.2-36.2-46.3-61.7-61.5c-20-11.9-41.2-23.8-64.5-25.1c-30.1-1.6-59.5,14.9-85.3,22.6c-17.2,11.8-40.7,19.8-56.2,36.6
		c-7.6,8.2-12.9,18.2-17.7,28.2c-19.2,40-32.1,83.3-43.1,126.2C692.5,528.5,711.8,555.6,734.7,573.2z"/>
	<path id="XMLID_8_" class="st1" d="M695.8,575.7c16.8,10.2,34,19.9,51.4,29.1c14.4,7.6,29.1,14.9,44.8,19c34,8.7,70.6,1,102-14.8
		c31.3-15.8,58.1-39.3,83.3-63.7c30.5-29.6,59.4-60.9,88.2-92.1c27.4-29.7,54.8-59.5,78.9-91.9c8.7-11.7,17.1-24.1,21-38.2
		c7.9-28.4-3.6-60.4-6.9-84.8c-14.4-29.7-31.6-72.1-64.8-94.1c-17.7-11.8-38.9-17-59.9-20.6c-44.7-7.7-90.2-8.6-135.6-9.6
		c-18.6-0.4-37.4-0.8-55.5,3.7c-30.9,7.7-56.4,28.9-79.6,50.7c-20.8,19.5-41,40.3-54.5,65.3c-11.6,21.4-17.8,45.3-23.6,69
		C671,360.9,659.4,419.8,650.5,479c-2.8,18.6-6,36.6,3,53.7C663.5,551.6,677.7,564.7,695.8,575.7z"/>
	<path id="XMLID_7_" class="st1" d="M843.5,646.1c12.7,0.8,25.7,0.5,37.9-3.2c15.1-4.6,28.2-14.1,40.8-23.7
		c88.4-67.4,168-146.3,236.3-233.9c14.8-19,29.2-38.7,37.5-61.2c10.4-28.1,10.8-58.9,9.4-88.9c-1.4-31.4-5.3-64.9-25.5-88.9
		c-23.1-27.5-61.5-35.7-97.1-40.7c-75-10.5-150.9-14.1-226.6-10.8c-14.1,0.6-28.4,1.5-41.9,5.6c-11.9,3.6-22.9,9.5-33.7,15.6
		c-30.4,16.9-60.1,35-89.2,54.1c-19.1,12.5-38.6,26.4-48.8,46.8c-8.4,16.9-9.5,36.4-10.4,55.3c-1.7,35.6-3.4,71.3-5.1,106.9
		c-1.4,29.2-2.8,58.5-0.5,87.6c2,25.4,7.4,50,9,75.5c1.4,22.4,15,33,34.2,43.7c25.4,14.2,52.7,26.3,79.7,37.1
		C779.6,634.8,811.1,644,843.5,646.1z"/>
</g>
</svg>
