<?xml version="1.0" encoding="utf-8"?>
<!-- Generator: Adobe Illustrator 19.0.0, SVG Export Plug-In . SVG Version: 6.00 Build 0)  -->
<svg version="1.1" id="Layer_1" xmlns="http://www.w3.org/2000/svg" xmlns:xlink="http://www.w3.org/1999/xlink" x="0px" y="0px"
	 viewBox="0 0 698.2 560" style="enable-background:new 0 0 698.2 560;" xml:space="preserve">
<style type="text/css">
	.st0{fill:#EB5B46;}
	.st1{fill:#FFA9B6;}
	.st2{fill:#2A3628;}
	.st3{fill:#FFAC40;}
	.st4{fill:#EAE3DB;}
	.st5{fill:#EEE4DC;}
</style>
<g>
	<rect id="XMLID_44_" x="6.3" y="5.6" class="st0" width="137.1" height="137.1"/>
	<rect id="XMLID_43_" x="143.4" y="5.6" class="st1" width="137.1" height="137.1"/>
	<polyline id="XMLID_42_" class="st0" points="554.8,142.8 554.8,5.6 691.9,5.6 	"/>
	<polyline id="XMLID_41_" class="st1" points="691.9,5.6 691.9,142.8 554.8,142.8 	"/>
	<polyline id="XMLID_40_" class="st1" points="143.4,142.8 143.4,280 6.3,280 	"/>
	<path id="XMLID_39_" class="st1" d="M109.3,74.2c-25.1,5.2-29.3,9.5-34.5,34.5c-5.2-25.1-9.5-29.3-34.5-34.5
		c25.1-5.2,29.3-9.5,34.5-34.5C80.1,64.7,84.3,69,109.3,74.2z"/>
	<rect id="XMLID_38_" x="280.5" y="142.8" class="st0" width="137.1" height="137.1"/>
	<polyline id="XMLID_37_" class="st2" points="143.4,280 280.5,280 280.5,417.2 	"/>
	<polyline id="XMLID_36_" class="st3" points="280.5,417.2 143.4,417.2 143.4,280 	"/>
	<rect id="XMLID_35_" x="280.5" y="280" class="st2" width="137.1" height="137.1"/>
	<rect id="XMLID_34_" x="143.4" y="142.8" class="st1" width="137.1" height="137.1"/>
	<rect id="XMLID_33_" x="417.6" y="142.8" class="st3" width="137.1" height="137.1"/>
	<path id="XMLID_32_" class="st3" d="M554.8,143.4H448.2c-16.9,0-30.6-13.7-30.6-30.6v-76c0-16.9,13.7-30.6,30.6-30.6h106.6V143.4z"
		/>
	<rect id="XMLID_31_" x="280.5" y="417.2" class="st0" width="137.1" height="137.1"/>
	<rect id="XMLID_30_" x="6.3" y="417.2" class="st3" width="137.1" height="137.1"/>
	
		<rect id="XMLID_29_" x="450.8" y="58.1" transform="matrix(0.7071 0.7071 -0.7071 0.7071 189.852 -308.6552)" class="st4" width="33.5" height="33.5"/>
	
		<rect id="XMLID_28_" x="498" y="58.1" transform="matrix(0.7071 0.7071 -0.7071 0.7071 203.6852 -342.0509)" class="st4" width="33.5" height="33.5"/>
	
		<rect id="XMLID_27_" x="589.7" y="215.5" transform="matrix(0.7071 0.7071 -0.7071 0.7071 408.037 -323.8037)" class="st2" width="10.3" height="230.2"/>
	<path id="XMLID_26_" class="st2" d="M385.9,252.7h-73.6v-51.9c0-20.3,16.5-36.8,36.8-36.8l0,0c20.3,0,36.8,16.5,36.8,36.8V252.7z"
		/>
	<g>
		<path id="XMLID_25_" class="st0" d="M530.5,255.7h-67.6c-11.6,0-21-9.4-21-21v-67.6h67.6c11.6,0,21,9.4,21,21V255.7z"/>
		<circle id="XMLID_24_" class="st1" cx="486.2" cy="211.4" r="23.7"/>
	</g>
	<g>
		<rect id="XMLID_23_" x="152.4" y="142.8" class="st0" width="7.5" height="137.1"/>
		<rect id="XMLID_22_" x="168.3" y="142.8" class="st0" width="7.5" height="137.1"/>
		<rect id="XMLID_21_" x="184.3" y="142.8" class="st0" width="7.5" height="137.1"/>
		<rect id="XMLID_20_" x="200.2" y="142.8" class="st0" width="7.5" height="137.1"/>
		<rect id="XMLID_19_" x="216.2" y="142.8" class="st0" width="7.5" height="137.1"/>
		<rect id="XMLID_18_" x="232.1" y="142.8" class="st0" width="7.5" height="137.1"/>
		<rect id="XMLID_17_" x="248" y="142.8" class="st0" width="7.5" height="137.1"/>
		<rect id="XMLID_16_" x="264" y="142.8" class="st0" width="7.5" height="137.1"/>
	</g>
	<g>
		<path id="XMLID_15_" class="st1" d="M310.2,529.5c1.9,1.7,3.9,3.2,6,4.6l82.3-82.3c-1.4-2.1-2.9-4.1-4.6-6L310.2,529.5z"/>
		<path id="XMLID_14_" class="st1" d="M351.5,544l56.9-56.9c0.1-3.4,0-6.8-0.5-10.2l-66.6,66.6C344.7,543.9,348.1,544.1,351.5,544z"
			/>
		<path id="XMLID_13_" class="st1" d="M406.1,501.2l-40.4,40.4c9.3-2.7,18.1-7.7,25.4-15C398.4,519.3,403.4,510.5,406.1,501.2z"/>
		<path id="XMLID_12_" class="st1" d="M405.8,467.1c-0.8-2.6-1.8-5.2-3-7.7l-79,79c2.5,1.2,5.1,2.2,7.7,3L405.8,467.1z"/>
		<path id="XMLID_11_" class="st1" d="M388,439.8c-1.9-1.7-3.9-3.2-6-4.6l-82.3,82.3c1.4,2.1,2.9,4.1,4.6,6L388,439.8z"/>
		<path id="XMLID_10_" class="st1" d="M374.3,430.9c-2.5-1.2-5.1-2.2-7.7-3l-74.2,74.2c0.8,2.6,1.8,5.2,3,7.7L374.3,430.9z"/>
		<path id="XMLID_9_" class="st1" d="M290.3,492.5l66.6-66.6c-3.4-0.4-6.8-0.6-10.2-0.5l-56.9,56.9
			C289.6,485.7,289.8,489.1,290.3,492.5z"/>
		<path id="XMLID_8_" class="st1" d="M292.1,468.1l40.4-40.4c-9.3,2.7-18.1,7.7-25.4,15C299.8,450,294.8,458.8,292.1,468.1z"/>
	</g>
	
		<rect id="XMLID_7_" x="474.4" y="81.7" transform="matrix(0.7071 -0.7071 0.7071 0.7071 74.2237 376.1103)" class="st2" width="33.5" height="33.5"/>
	
		<rect id="XMLID_6_" x="474.4" y="34.5" transform="matrix(0.7071 -0.7071 0.7071 0.7071 107.6191 362.2776)" class="st2" width="33.5" height="33.5"/>
	<g>
		<polyline id="XMLID_5_" class="st5" points="123.5,443.8 74.8,492.5 26.2,443.8 		"/>
		<polyline id="XMLID_4_" class="st0" points="94.4,443.8 74.8,463.4 55.3,443.8 		"/>
		<polyline id="XMLID_3_" class="st5" points="123.5,492.5 74.8,541.1 26.2,492.5 		"/>
		<polyline id="XMLID_2_" class="st0" points="94.4,492.5 74.8,512 55.3,492.5 		"/>
	</g>
	<path id="XMLID_1_" class="st1" d="M349.1,164c-2.2,0-4.4,0.2-6.5,0.6c17.2,3.1,30.3,18.1,30.3,36.2v51.9h13.1v-51.9
		C385.9,180.5,369.4,164,349.1,164z"/>
</g>
</svg>
