<?xml version="1.0" encoding="utf-8"?>
<!-- Generator: Adobe Illustrator 19.0.0, SVG Export Plug-In . SVG Version: 6.00 Build 0)  -->
<svg version="1.1" id="Layer_1" xmlns="http://www.w3.org/2000/svg" xmlns:xlink="http://www.w3.org/1999/xlink" x="0px" y="0px"
	 viewBox="-350.1 231.1 100 100" style="enable-background:new -350.1 231.1 100 100;" xml:space="preserve">
<style type="text/css">
	.st0{fill:#FFFFFF;}
</style>
<g>
	<path id="XMLID_6_" class="st0" d="M-273.2,235.9c-1.6,3.9-3.4,7.5-5.7,10.9c-5.4,7.2-12.4,10.6-21.5,10.6
		c-8.8,0-15.5-3.4-20.9-10.3c-2.3-3.1-4.4-7-5.7-11.1h-17.6l0.3,0.8c2.3,5.4,5.7,10.6,10.3,15.3c9.1,9,20.4,13.7,33.6,13.7
		s24.6-4.7,33.9-13.7c4.7-4.7,8-9.6,10.3-15.3l0.3-0.8C-255.9,235.9-273.2,235.9-273.2,235.9z"/>
	<path id="XMLID_5_" class="st0" d="M-328.8,326.4c-0.5-3.1-0.8-6.7-0.8-10.6c0-11.6,2.8-21.2,8.3-28.2s12.7-10.1,21.7-10.1
		c8.5,0,15.3,3.4,20.7,10.3c5.4,7,8.3,16.8,8.3,28.4c0,3.6-0.3,6.7-0.8,9.8h17.8c0.8-3.4,1-7,1-10.6c0-12.9-4.7-24-13.7-33.1
		c-9.1-9.1-20.4-13.4-33.6-13.4c-13.4,0-25.1,4.4-34.1,13.2c-9,8.8-13.7,19.9-13.7,33.4c0,3.6,0.3,7.2,1,10.6h17.8V326.4z"/>
</g>
</svg>
