<?xml version="1.0" encoding="utf-8"?>
<!-- Generator: Adobe Illustrator 19.0.0, SVG Export Plug-In . SVG Version: 6.00 Build 0)  -->
<svg version="1.1" id="Layer_1" xmlns="http://www.w3.org/2000/svg" xmlns:xlink="http://www.w3.org/1999/xlink" x="0px" y="0px"
	 viewBox="0 0 894 766" style="enable-background:new 0 0 894 766;" xml:space="preserve">
<style type="text/css">
	.st0{fill:#FFFFFF;}
	.st1{fill:#F76F4F;}
	.st2{fill:#3B302D;}
</style>
<g id="XMLID_522_">
	<g id="XMLID_1332_">
		<rect id="XMLID_907_" x="710.2" y="309.1" class="st0" width="175.5" height="147.8"/>
		<g id="XMLID_1333_">
			<g id="XMLID_345_">
				<g id="XMLID_408_">
					<path id="XMLID_409_" class="st1" d="M839.8,456.9c0-21.3,20.6-38.7,45.9-38.7v7c-20.7,0-37.6,14.2-37.6,31.7H839.8z"/>
				</g>
				<g id="XMLID_354_">
					<path id="XMLID_355_" class="st1" d="M813.8,456.9c0-33.4,32.2-60.5,71.8-60.5v7c-35,0-63.5,24-63.5,53.5H813.8z"/>
				</g>
				<g id="XMLID_352_">
					<path id="XMLID_353_" class="st1" d="M787.9,456.9c0-45.4,43.8-82.3,97.7-82.3v7c-49.3,0-89.5,33.8-89.5,75.4H787.9z"/>
				</g>
				<g id="XMLID_350_">
					<path id="XMLID_351_" class="st1" d="M762,456.9c0-57.4,55.5-104.2,123.7-104.2v7c-63.6,0-115.4,43.6-115.4,97.2H762z"/>
				</g>
				<g id="XMLID_348_">
					<path id="XMLID_349_" class="st1" d="M736.1,456.9c0-69.5,67.1-126,149.6-126v7c-77.9,0-141.3,53.4-141.3,119H736.1z"/>
				</g>
				<g id="XMLID_346_">
					<path id="XMLID_347_" class="st1" d="M710.2,456.9c0-81.5,78.7-147.8,175.5-147.8v7c-92.2,0-167.2,63.2-167.2,140.9H710.2z"/>
				</g>
			</g>
		</g>
	</g>
	<g id="XMLID_1301_">
		<rect id="XMLID_900_" x="710.2" y="161.2" class="st0" width="175.5" height="147.8"/>
		<g id="XMLID_1302_">
			<g id="XMLID_331_">
				<g id="XMLID_406_">
					<path id="XMLID_407_" class="st2" d="M885.7,199.9c-25.3,0-45.9-17.4-45.9-38.7h8.3c0,17.5,16.9,31.7,37.6,31.7V199.9z"/>
				</g>
				<g id="XMLID_340_">
					<path id="XMLID_341_" class="st2" d="M885.7,221.7c-39.6,0-71.8-27.1-71.8-60.5h8.3c0,29.5,28.5,53.5,63.5,53.5V221.7z"/>
				</g>
				<g id="XMLID_338_">
					<path id="XMLID_339_" class="st2" d="M885.7,243.6c-53.9,0-97.7-36.9-97.7-82.3h8.3c0,41.6,40.1,75.4,89.4,75.4V243.6z"/>
				</g>
				<g id="XMLID_336_">
					<path id="XMLID_337_" class="st2" d="M885.7,265.4c-68.2,0-123.7-46.7-123.7-104.2h8.3c0,53.6,51.8,97.2,115.4,97.2V265.4z"/>
				</g>
				<g id="XMLID_334_">
					<path id="XMLID_335_" class="st2" d="M885.7,287.2c-82.5,0-149.6-56.5-149.6-126h8.3c0,65.6,63.4,119,141.3,119V287.2z"/>
				</g>
				<g id="XMLID_332_">
					<path id="XMLID_333_" class="st2" d="M885.7,309.1c-96.8,0-175.5-66.3-175.5-147.8h8.3c0,77.7,75,140.9,167.2,140.9V309.1z"/>
				</g>
			</g>
		</g>
	</g>
	<g id="XMLID_1270_">
		<rect id="XMLID_893_" x="710.2" y="13.4" class="st0" width="175.5" height="147.8"/>
		<g id="XMLID_1271_">
			<g id="XMLID_317_">
				<g id="XMLID_404_">
					<path id="XMLID_405_" class="st2" d="M710.2,122.5c25.3,0,45.9,17.4,45.9,38.7h-8.3c0-17.5-16.9-31.7-37.6-31.7V122.5z"/>
				</g>
				<g id="XMLID_326_">
					<path id="XMLID_327_" class="st2" d="M710.2,100.7c39.6,0,71.8,27.1,71.8,60.5h-8.3c0-29.5-28.5-53.5-63.5-53.5V100.7z"/>
				</g>
				<g id="XMLID_324_">
					<path id="XMLID_325_" class="st2" d="M710.2,78.9c53.9,0,97.7,36.9,97.7,82.3h-8.3c0-41.6-40.1-75.4-89.4-75.4V78.9z"/>
				</g>
				<g id="XMLID_322_">
					<path id="XMLID_323_" class="st2" d="M710.2,57c68.2,0,123.7,46.7,123.7,104.2h-8.3c0-53.6-51.8-97.2-115.4-97.2V57z"/>
				</g>
				<g id="XMLID_320_">
					<path id="XMLID_321_" class="st2" d="M710.2,35.2c82.5,0,149.6,56.5,149.6,126h-8.3c0-65.6-63.4-119-141.3-119V35.2z"/>
				</g>
				<g id="XMLID_318_">
					<path id="XMLID_319_" class="st2" d="M710.2,13.4c96.8,0,175.5,66.3,175.5,147.8h-8.3c0-77.7-75-140.9-167.2-140.9V13.4z"/>
				</g>
			</g>
		</g>
	</g>
	<g id="XMLID_1239_">
		<rect id="XMLID_886_" x="359.2" y="309.1" class="st0" width="175.5" height="147.8"/>
		<g id="XMLID_1240_">
			<g id="XMLID_303_">
				<g id="XMLID_402_">
					<path id="XMLID_403_" class="st2" d="M405.2,309.1c0,21.3-20.6,38.7-45.9,38.7v-7c20.7,0,37.6-14.2,37.6-31.7H405.2z"/>
				</g>
				<g id="XMLID_312_">
					<path id="XMLID_313_" class="st2" d="M431.1,309.1c0,33.4-32.2,60.5-71.8,60.5v-7c35,0,63.5-24,63.5-53.5H431.1z"/>
				</g>
				<g id="XMLID_310_">
					<path id="XMLID_311_" class="st2" d="M457,309.1c0,45.4-43.8,82.3-97.7,82.3v-7c49.3,0,89.5-33.8,89.5-75.4H457z"/>
				</g>
				<g id="XMLID_308_">
					<path id="XMLID_309_" class="st2" d="M482.9,309.1c0,57.4-55.5,104.2-123.7,104.2v-7c63.6,0,115.4-43.6,115.4-97.2H482.9z"/>
				</g>
				<g id="XMLID_306_">
					<path id="XMLID_307_" class="st2" d="M508.8,309.1c0,69.5-67.1,126-149.6,126v-7c77.9,0,141.3-53.4,141.3-119H508.8z"/>
				</g>
				<g id="XMLID_304_">
					<path id="XMLID_305_" class="st2" d="M534.7,309.1c0,81.5-78.7,147.8-175.5,147.8v-7c92.2,0,167.2-63.2,167.2-140.9H534.7z"/>
				</g>
			</g>
		</g>
	</g>
	<g id="XMLID_1208_">
		<rect id="XMLID_853_" x="534.7" y="309.1" class="st1" width="175.5" height="147.8"/>
		<g id="XMLID_1209_">
			<g id="XMLID_289_">
				<g id="XMLID_400_">
					<path id="XMLID_401_" class="st0" d="M580.6,309.1c0,21.3-20.6,38.7-45.9,38.7v-7c20.7,0,37.6-14.2,37.6-31.7H580.6z"/>
				</g>
				<g id="XMLID_298_">
					<path id="XMLID_299_" class="st0" d="M606.6,309.1c0,33.4-32.2,60.5-71.8,60.5v-7c35,0,63.5-24,63.5-53.5H606.6z"/>
				</g>
				<g id="XMLID_296_">
					<path id="XMLID_297_" class="st0" d="M632.5,309.1c0,45.4-43.8,82.3-97.7,82.3v-7c49.3,0,89.5-33.8,89.5-75.4H632.5z"/>
				</g>
				<g id="XMLID_294_">
					<path id="XMLID_295_" class="st0" d="M658.4,309.1c0,57.4-55.5,104.2-123.7,104.2v-7c63.6,0,115.4-43.6,115.4-97.2H658.4z"/>
				</g>
				<g id="XMLID_292_">
					<path id="XMLID_293_" class="st0" d="M684.3,309.1c0,69.5-67.1,126-149.6,126v-7c77.9,0,141.3-53.4,141.3-119H684.3z"/>
				</g>
				<g id="XMLID_290_">
					<path id="XMLID_291_" class="st0" d="M710.2,309.1c0,81.5-78.7,147.8-175.5,147.8v-7c92.2,0,167.2-63.2,167.2-140.9H710.2z"/>
				</g>
			</g>
		</g>
	</g>
	<g id="XMLID_1177_">
		<rect id="XMLID_755_" x="534.7" y="161.2" class="st0" width="175.5" height="147.8"/>
		<g id="XMLID_1178_">
			<g id="XMLID_275_">
				<g id="XMLID_398_">
					<path id="XMLID_399_" class="st2" d="M710.2,199.9c-25.3,0-45.9-17.4-45.9-38.7h8.3c0,17.5,16.9,31.7,37.6,31.7V199.9z"/>
				</g>
				<g id="XMLID_284_">
					<path id="XMLID_285_" class="st2" d="M710.2,221.7c-39.6,0-71.8-27.1-71.8-60.5h8.3c0,29.5,28.5,53.5,63.5,53.5V221.7z"/>
				</g>
				<g id="XMLID_282_">
					<path id="XMLID_283_" class="st2" d="M710.2,243.6c-53.9,0-97.7-36.9-97.7-82.3h8.3c0,41.6,40.1,75.4,89.4,75.4V243.6z"/>
				</g>
				<g id="XMLID_280_">
					<path id="XMLID_281_" class="st2" d="M710.2,265.4c-68.2,0-123.6-46.7-123.6-104.2h8.3c0,53.6,51.8,97.2,115.4,97.2V265.4z"/>
				</g>
				<g id="XMLID_278_">
					<path id="XMLID_279_" class="st2" d="M710.2,287.2c-82.5,0-149.6-56.5-149.6-126h8.3c0,65.6,63.4,119,141.3,119V287.2z"/>
				</g>
				<g id="XMLID_276_">
					<path id="XMLID_277_" class="st2" d="M710.2,309.1c-96.8,0-175.5-66.3-175.5-147.8h8.3c0,77.7,75,140.9,167.2,140.9V309.1z"/>
				</g>
			</g>
		</g>
	</g>
	<g id="XMLID_1146_">
		<rect id="XMLID_613_" x="183.8" y="309.1" class="st1" width="175.5" height="147.8"/>
		<g id="XMLID_1147_">
			<g id="XMLID_261_">
				<g id="XMLID_396_">
					<path id="XMLID_397_" class="st0" d="M359.2,347.8c-25.3,0-45.9-17.4-45.9-38.7h8.3c0,17.5,16.9,31.7,37.6,31.7V347.8z"/>
				</g>
				<g id="XMLID_270_">
					<path id="XMLID_271_" class="st0" d="M359.2,369.6c-39.6,0-71.8-27.1-71.8-60.5h8.3c0,29.5,28.5,53.5,63.6,53.5V369.6z"/>
				</g>
				<g id="XMLID_268_">
					<path id="XMLID_269_" class="st0" d="M359.2,391.4c-53.9,0-97.7-36.9-97.7-82.4h8.3c0,41.6,40.1,75.4,89.4,75.4V391.4z"/>
				</g>
				<g id="XMLID_266_">
					<path id="XMLID_267_" class="st0" d="M359.2,413.3c-68.2,0-123.7-46.7-123.7-104.2h8.3c0,53.6,51.8,97.2,115.4,97.2V413.3z"/>
				</g>
				<g id="XMLID_264_">
					<path id="XMLID_265_" class="st0" d="M359.2,435.1c-82.5,0-149.6-56.5-149.6-126h8.3c0,65.6,63.4,119,141.3,119V435.1z"/>
				</g>
				<g id="XMLID_262_">
					<path id="XMLID_263_" class="st0" d="M359.2,456.9c-96.8,0-175.5-66.3-175.5-147.8h8.3c0,77.7,75,140.9,167.2,140.9V456.9z"/>
				</g>
			</g>
		</g>
	</g>
	<g id="XMLID_1115_">
		<rect id="XMLID_599_" x="8.3" y="161.2" class="st2" width="175.5" height="147.9"/>
		<g id="XMLID_1116_">
			<g id="XMLID_247_">
				<g id="XMLID_394_">
					<path id="XMLID_395_" class="st1" d="M137.8,309.1c0-21.3,20.6-38.7,45.9-38.7v7c-20.7,0-37.6,14.2-37.6,31.7H137.8z"/>
				</g>
				<g id="XMLID_256_">
					<path id="XMLID_257_" class="st1" d="M111.9,309.1c0-33.4,32.2-60.5,71.8-60.5v7c-35,0-63.5,24-63.5,53.5H111.9z"/>
				</g>
				<g id="XMLID_254_">
					<path id="XMLID_255_" class="st1" d="M86,309.1c0-45.4,43.8-82.3,97.7-82.3v7c-49.3,0-89.5,33.8-89.5,75.4H86z"/>
				</g>
				<g id="XMLID_252_">
					<path id="XMLID_253_" class="st1" d="M60.1,309.1c0-57.4,55.5-104.2,123.7-104.2v7c-63.6,0-115.4,43.6-115.4,97.2H60.1z"/>
				</g>
				<g id="XMLID_250_">
					<path id="XMLID_251_" class="st1" d="M34.2,309.1c0-69.5,67.1-126,149.6-126v7c-77.9,0-141.3,53.4-141.3,119H34.2z"/>
				</g>
				<g id="XMLID_248_">
					<path id="XMLID_249_" class="st1" d="M8.3,309.1c0-81.5,78.7-147.9,175.5-147.9v7c-92.2,0-167.2,63.2-167.2,140.9H8.3z"/>
				</g>
			</g>
		</g>
	</g>
	<g id="XMLID_1084_">
		<rect id="XMLID_592_" x="359.2" y="13.4" class="st0" width="175.5" height="147.8"/>
		<g id="XMLID_1085_">
			<g id="XMLID_233_">
				<g id="XMLID_392_">
					<path id="XMLID_393_" class="st2" d="M534.7,52.1c-25.3,0-45.9-17.4-45.9-38.7h8.3c0,17.5,16.9,31.7,37.6,31.7V52.1z"/>
				</g>
				<g id="XMLID_242_">
					<path id="XMLID_243_" class="st2" d="M534.7,73.9c-39.6,0-71.8-27.1-71.8-60.5h8.3c0,29.5,28.5,53.5,63.5,53.5V73.9z"/>
				</g>
				<g id="XMLID_240_">
					<path id="XMLID_241_" class="st2" d="M534.7,95.7c-53.9,0-97.7-36.9-97.7-82.3h8.3c0,41.6,40.1,75.4,89.4,75.4V95.7z"/>
				</g>
				<g id="XMLID_238_">
					<path id="XMLID_239_" class="st2" d="M534.7,117.6c-68.2,0-123.6-46.7-123.6-104.2h8.3c0,53.6,51.8,97.2,115.4,97.2V117.6z"/>
				</g>
				<g id="XMLID_236_">
					<path id="XMLID_237_" class="st2" d="M534.7,139.4c-82.5,0-149.6-56.5-149.6-126h8.3c0,65.6,63.4,119,141.3,119V139.4z"/>
				</g>
				<g id="XMLID_234_">
					<path id="XMLID_235_" class="st2" d="M534.7,161.2c-96.8,0-175.5-66.3-175.5-147.8h8.3c0,77.7,75,140.9,167.2,140.9V161.2z"/>
				</g>
			</g>
		</g>
	</g>
	<g id="XMLID_1053_">
		<rect id="XMLID_585_" x="359.2" y="456.9" class="st1" width="175.5" height="147.8"/>
		<g id="XMLID_1054_">
			<g id="XMLID_219_">
				<g id="XMLID_390_">
					<path id="XMLID_391_" class="st2" d="M488.8,604.8c0-21.3,20.6-38.7,45.9-38.7v7c-20.7,0-37.6,14.2-37.6,31.7H488.8z"/>
				</g>
				<g id="XMLID_228_">
					<path id="XMLID_229_" class="st2" d="M462.9,604.8c0-33.4,32.2-60.5,71.8-60.5v7c-35,0-63.5,24-63.5,53.5H462.9z"/>
				</g>
				<g id="XMLID_226_">
					<path id="XMLID_227_" class="st2" d="M437,604.8c0-45.4,43.8-82.3,97.7-82.3v7c-49.3,0-89.5,33.8-89.5,75.4H437z"/>
				</g>
				<g id="XMLID_224_">
					<path id="XMLID_225_" class="st2" d="M411.1,604.8c0-57.4,55.5-104.2,123.7-104.2v7c-63.6,0-115.4,43.6-115.4,97.2H411.1z"/>
				</g>
				<g id="XMLID_222_">
					<path id="XMLID_223_" class="st2" d="M385.1,604.8c0-69.5,67.1-126,149.6-126v7c-77.9,0-141.3,53.4-141.3,119H385.1z"/>
				</g>
				<g id="XMLID_220_">
					<path id="XMLID_221_" class="st2" d="M359.2,604.8c0-81.5,78.7-147.8,175.5-147.8v7c-92.2,0-167.2,63.2-167.2,140.9H359.2z"/>
				</g>
			</g>
		</g>
	</g>
	<g id="XMLID_992_">
		<rect id="XMLID_578_" x="183.8" y="456.9" class="st1" width="175.5" height="147.8"/>
		<g id="XMLID_993_">
			<g id="XMLID_210_">
				<g id="XMLID_388_">
					<path id="XMLID_389_" class="st0" d="M313.3,604.8c0-21.3,20.6-38.7,45.9-38.7v7c-20.7,0-37.6,14.2-37.6,31.7H313.3z"/>
				</g>
				<g id="XMLID_244_">
					<path id="XMLID_246_" class="st0" d="M287.4,604.8c0-33.4,32.2-60.5,71.8-60.5v7c-35,0-63.5,24-63.5,53.5H287.4z"/>
				</g>
				<g id="XMLID_218_">
					<path id="XMLID_230_" class="st0" d="M261.5,604.8c0-45.4,43.8-82.3,97.7-82.3v7c-49.3,0-89.5,33.8-89.5,75.4H261.5z"/>
				</g>
				<g id="XMLID_215_">
					<path id="XMLID_216_" class="st0" d="M235.6,604.8c0-57.4,55.5-104.2,123.7-104.2v7c-63.6,0-115.4,43.6-115.4,97.2H235.6z"/>
				</g>
				<g id="XMLID_213_">
					<path id="XMLID_214_" class="st0" d="M209.7,604.8c0-69.5,67.1-126,149.6-126v7c-77.9,0-141.3,53.4-141.3,119H209.7z"/>
				</g>
				<g id="XMLID_211_">
					<path id="XMLID_212_" class="st0" d="M183.8,604.8c0-81.5,78.7-147.8,175.5-147.8v7C267,463.9,192,527.1,192,604.8H183.8z"/>
				</g>
			</g>
		</g>
	</g>
	<g id="XMLID_745_">
		<rect id="XMLID_569_" x="534.7" y="456.9" class="st0" width="351" height="295.7"/>
		<g id="XMLID_746_">
			<g id="XMLID_258_">
				<g id="XMLID_386_">
					<path id="XMLID_387_" class="st2" d="M885.7,534.3c-50.6,0-91.8-34.7-91.8-77.4h16.6c0,35,33.8,63.4,75.3,63.4V534.3z"/>
				</g>
				<g id="XMLID_314_">
					<path id="XMLID_315_" class="st2" d="M885.7,578c-79.2,0-143.7-54.3-143.7-121h16.6c0,59,57,107.1,127.1,107.1V578z"/>
				</g>
				<g id="XMLID_301_">
					<path id="XMLID_302_" class="st2" d="M885.7,621.6c-107.8,0-195.5-73.9-195.5-164.7h16.6c0,83.1,80.2,150.7,178.9,150.7V621.6z
						"/>
				</g>
				<g id="XMLID_288_">
					<path id="XMLID_300_" class="st2" d="M885.7,665.3c-136.4,0-247.3-93.5-247.3-208.4H655c0,107.2,103.5,194.4,230.7,194.4V665.3
						z"/>
				</g>
				<g id="XMLID_286_">
					<path id="XMLID_287_" class="st2" d="M885.7,709c-164.9,0-299.1-113.1-299.1-252h16.6c0,131.3,126.7,238.1,282.5,238.1V709z"/>
				</g>
				<g id="XMLID_260_">
					<path id="XMLID_272_" class="st2" d="M885.7,752.6c-193.5,0-351-132.6-351-295.7h16.6c0,155.3,150,281.7,334.4,281.7V752.6z"/>
				</g>
			</g>
		</g>
	</g>
	<g id="XMLID_697_">
		<rect id="XMLID_557_" x="359.2" y="604.8" class="st2" width="175.5" height="147.8"/>
		<g id="XMLID_698_">
			<g id="XMLID_316_">
				<g id="XMLID_384_">
					<path id="XMLID_385_" class="st1" d="M359.2,713.9c25.3,0,45.9,17.4,45.9,38.7h-8.3c0-17.5-16.9-31.7-37.6-31.7V713.9z"/>
				</g>
				<g id="XMLID_358_">
					<path id="XMLID_359_" class="st1" d="M359.2,692.1c39.6,0,71.8,27.1,71.8,60.5h-8.3c0-29.5-28.5-53.5-63.5-53.5V692.1z"/>
				</g>
				<g id="XMLID_356_">
					<path id="XMLID_357_" class="st1" d="M359.2,670.3c53.9,0,97.7,36.9,97.7,82.3h-8.3c0-41.6-40.1-75.4-89.4-75.4V670.3z"/>
				</g>
				<g id="XMLID_343_">
					<path id="XMLID_344_" class="st1" d="M359.2,648.4c68.2,0,123.7,46.7,123.7,104.2h-8.3c0-53.6-51.8-97.2-115.4-97.2V648.4z"/>
				</g>
				<g id="XMLID_330_">
					<path id="XMLID_342_" class="st1" d="M359.2,626.6c82.5,0,149.6,56.5,149.6,126h-8.3c0-65.6-63.4-119-141.3-119V626.6z"/>
				</g>
				<g id="XMLID_328_">
					<path id="XMLID_329_" class="st1" d="M359.2,604.8c96.8,0,175.5,66.3,175.5,147.8h-8.3c0-77.7-75-140.9-167.2-140.9V604.8z"/>
				</g>
			</g>
		</g>
	</g>
	<g id="XMLID_665_">
		<rect id="XMLID_549_" x="183.8" y="604.8" class="st1" width="175.5" height="147.8"/>
		<g id="XMLID_666_">
			<g id="XMLID_360_">
				<g id="XMLID_382_">
					<path id="XMLID_383_" class="st0" d="M229.7,604.8c0,21.3-20.6,38.7-45.9,38.7v-7c20.7,0,37.6-14.2,37.6-31.7H229.7z"/>
				</g>
				<g id="XMLID_369_">
					<path id="XMLID_370_" class="st0" d="M255.6,604.8c0,33.4-32.2,60.5-71.8,60.5v-7c35,0,63.5-24,63.5-53.5H255.6z"/>
				</g>
				<g id="XMLID_367_">
					<path id="XMLID_368_" class="st0" d="M281.5,604.8c0,45.4-43.8,82.3-97.7,82.3v-7c49.3,0,89.5-33.8,89.5-75.4H281.5z"/>
				</g>
				<g id="XMLID_365_">
					<path id="XMLID_366_" class="st0" d="M307.4,604.8c0,57.4-55.5,104.2-123.7,104.2v-7c63.6,0,115.4-43.6,115.4-97.2H307.4z"/>
				</g>
				<g id="XMLID_363_">
					<path id="XMLID_364_" class="st0" d="M333.3,604.8c0,69.5-67.1,126-149.6,126v-7c77.9,0,141.3-53.4,141.3-119H333.3z"/>
				</g>
				<g id="XMLID_361_">
					<path id="XMLID_362_" class="st0" d="M359.2,604.8c0,81.5-78.7,147.8-175.5,147.8v-7c92.2,0,167.2-63.2,167.2-140.9H359.2z"/>
				</g>
			</g>
		</g>
	</g>
	<g id="XMLID_523_">
		<rect id="XMLID_540_" x="8.3" y="604.8" class="st0" width="175.5" height="147.8"/>
		<g id="XMLID_524_">
			<g id="XMLID_371_">
				<g id="XMLID_410_">
					<path id="XMLID_411_" class="st2" d="M183.8,643.5c-25.3,0-45.9-17.4-45.9-38.7h8.3c0,17.5,16.9,31.7,37.6,31.7V643.5z"/>
				</g>
				<g id="XMLID_380_">
					<path id="XMLID_381_" class="st2" d="M183.8,665.3c-39.6,0-71.8-27.1-71.8-60.5h8.3c0,29.5,28.5,53.5,63.6,53.5V665.3z"/>
				</g>
				<g id="XMLID_378_">
					<path id="XMLID_379_" class="st2" d="M183.8,687.1c-53.9,0-97.7-36.9-97.7-82.3h8.3c0,41.6,40.1,75.4,89.4,75.4V687.1z"/>
				</g>
				<g id="XMLID_376_">
					<path id="XMLID_377_" class="st2" d="M183.8,709c-68.2,0-123.7-46.7-123.7-104.2h8.3c0,53.6,51.8,97.2,115.4,97.2V709z"/>
				</g>
				<g id="XMLID_374_">
					<path id="XMLID_375_" class="st2" d="M183.8,730.8c-82.5,0-149.6-56.5-149.6-126h8.3c0,65.6,63.4,119,141.3,119V730.8z"/>
				</g>
				<g id="XMLID_372_">
					<path id="XMLID_373_" class="st2" d="M183.8,752.6C87,752.6,8.3,686.3,8.3,604.8h8.3c0,77.7,75,140.9,167.2,140.9V752.6z"/>
				</g>
			</g>
		</g>
	</g>
</g>
</svg>
