<?xml version="1.0" encoding="utf-8"?>
<!-- Generator: Adobe Illustrator 19.0.0, SVG Export Plug-In . SVG Version: 6.00 Build 0)  -->
<svg version="1.1" id="Layer_1" xmlns="http://www.w3.org/2000/svg" xmlns:xlink="http://www.w3.org/1999/xlink" x="0px" y="0px"
	 viewBox="0 0 894 881.5" style="enable-background:new 0 0 894 881.5;" xml:space="preserve">
<style type="text/css">
	.st0{fill:#125551;}
	.st1{fill:#E9A88A;}
	.st2{fill:#50938D;}
	.st3{clip-path:url(#XMLID_93_);fill:#FFFFFF;}
	.st4{clip-path:url(#XMLID_93_);fill:#FFDCCD;}
	.st5{clip-path:url(#XMLID_93_);fill:#D06A43;}
	.st6{fill:none;stroke:#125551;stroke-miterlimit:10;}
	.st7{clip-path:url(#XMLID_94_);fill:#D06A43;}
	.st8{clip-path:url(#XMLID_94_);fill:#EFC8B0;}
	.st9{clip-path:url(#XMLID_94_);fill:#FFFFFF;}
	.st10{clip-path:url(#XMLID_94_);fill:#50938D;}
	.st11{clip-path:url(#XMLID_94_);fill:#125551;}
	.st12{fill:none;stroke:#2D3436;stroke-miterlimit:10;}
	.st13{clip-path:url(#XMLID_95_);fill:#50938D;}
	.st14{clip-path:url(#XMLID_95_);fill:#FFDCCD;}
	.st15{clip-path:url(#XMLID_95_);fill:#FFFFFF;}
	.st16{clip-path:url(#XMLID_95_);fill:#D06A43;}
	.st17{clip-path:url(#XMLID_96_);fill:#FFFFFF;}
	.st18{clip-path:url(#XMLID_96_);fill:#E9A88A;}
	.st19{clip-path:url(#XMLID_96_);}
	.st20{fill:#FFDCCD;}
	.st21{fill:#D06A43;}
</style>
<g id="XMLID_618_">
	<g id="XMLID_494_">
		<g id="XMLID_507_">
			<path id="XMLID_521_" class="st0" d="M217.5,525.5L217.5,525.5c-90.7,0-164.3,61.8-164.3,138v200.7h328.5V663.5
				C381.8,587.3,308.2,525.5,217.5,525.5z"/>
			<rect id="XMLID_520_" x="53.3" y="771.5" class="st1" width="328.5" height="92.7"/>
			<g id="XMLID_508_">
				<ellipse id="XMLID_518_" class="st2" cx="217.5" cy="663.8" rx="164.7" ry="138.3"/>
				<g id="XMLID_510_">
					<defs>
						<ellipse id="XMLID_514_" cx="217.5" cy="663.8" rx="164.7" ry="138.3"/>
					</defs>
					<clipPath id="XMLID_93_">
						<use xlink:href="#XMLID_514_"  style="overflow:visible;"/>
					</clipPath>
					<polygon id="XMLID_517_" class="st3" points="212.1,739.9 212.1,708.4 172.3,708.4 172.3,676.9 132.5,676.9 132.5,645.4 
						92.7,645.4 92.7,613.9 52.9,613.9 52.9,771.3 87.5,771.3 92.7,771.3 251.9,771.3 251.9,739.9 					"/>
					<rect id="XMLID_516_" x="251.9" y="521.9" class="st4" width="255.5" height="249.4"/>
					<path id="XMLID_515_" class="st5" d="M334.9,699.6h-43.4v-72.2c0-10.1,9.7-18.2,21.7-18.2l0,0c12,0,21.7,8.2,21.7,18.2V699.6z"
						/>
				</g>
			</g>
		</g>
		<g id="XMLID_498_">
			<path id="XMLID_505_" class="st6" d="M195.4,642.8c-2.4-3.5-7.6-14.2-9.8-17.8c-1.3-2-2.8-3.7-3.9-5.8c-1.3-2.4-2.2-4.9-3.4-7.4
				c-0.9-2-2.1-3.8-2.8-5.9c-0.5-1.3-0.8-2.6-1.6-3.8c-0.9-1.4-2.1-2.7-2.7-4.1c-1.8-4.5-1.1-9.1-1.2-13.9c0-2-0.7-3.6-0.6-5.6
				c0.1-1.3,0.1-2.7,0.1-4c0-2.1-0.3-4.1-0.8-6.2c-0.2-0.7-0.5-1.5-0.6-2.2c-0.2-1.3,0.3-2.3,0.5-3.7c0.8-4.6,1.9-9.1,2.5-13.8
				c0.8-7.5,0.1-15.1,1.2-22.6c0.6-3.8,1.3-7.6,1.8-11.4c0.3-2.4,0.2-4.7,0.6-7c0.3-1.7,0.1-3.2,0.2-4.9c0.1-1.3,0.9-2.3,1.3-3.6
				c0.5-1.5,0.7-2.9,1.4-4.4c0.6-1.3,0.7-2.5,1-3.7c0.2-0.6,0.4-1.4,1-1.8c0.6,0.7,0,1.3,0,2c0.1,1.1,0.5,2.6,0.9,3.7
				c1,2.8,2.8,5.3,3.9,8c0.6,1.6,2,2.8,2.8,4.4c0.5,1.1,0.8,2.2,1.5,3.2c1.6,2.7,2.5,5.7,3.1,8.6c1,4.9,2.4,9.6,3.9,14.4
				c1,3.2,1.9,6.7,2.4,10c0.4,3.1,1.7,6.4,1.4,9.4c-0.4,5.3-0.6,10.7-0.3,16c0.2,3.4-0.5,6.9,0,10.3c0.1,0.8-0.1,1.6,0,2.4
				c0.1,1.4,0.8,2.8,0.9,4.2c0.3,4.1,0.8,9,2.5,12.9c1.3,2.9,1.7,7.6,0.2,10.4c-0.9,1.7-1.1,3.6-1.8,5.3c-0.3,0.7-0.2,1.3-0.5,2
				c-0.2,0.8-1,1.6-1.3,2.4c-0.9,2.3-2.3,4.6-3,6.9c-0.8,2.5-1.1,4.8-1.2,7.3c0,1-0.1,1.9,0,2.9c0.1,1.3,0.7,2.4,0.9,3.7
				c0.2,1.1,0.6,2.4,0.7,3.6c0,1.1-0.1,1.9,0.1,3.1c0.2,1.4,0.1,2.7,0,4.1c0,1.5,0.6,2.9,0.9,4.3c0.4,1.9,0.6,4,0.9,5.9
				c0.4,3.4,2.1,6.7,3.3,9.9c0.8,2.3,2.1,4.4,3.2,6.6c1.1,2.4,3.4,4.3,4.2,6.8c0.6,1.9,2.1,3.3,3.1,5.1c2.1,4,4.1,8.3,5.5,12.5
				c1.2,3.5,2.7,6.9,3.4,10.5c0.7,3.5,0.9,7,1.7,10.5c0.7,3.3,1.1,6.5,1.3,9.9c0.1,2.2-0.5,4.5-0.2,6.7c0.3,1.9,0.3,3.8-0.1,5.7
				c-0.3,1.7,0,4.1-2.4,4.8"/>
			<path id="XMLID_504_" class="st6" d="M207.2,622.5c4.4-3.4,10-5.5,15-8.4c10.5-6,17.8-15.3,27.8-21.9c4.2-2.7,8.8-5,13.2-7.4
				c15-8.1,28.5-18,40.1-29.3c1.8,10.5,3.2,21.7-1.9,31.4c-6.9,13.2-23.7,20.2-37.3,29c-7.8,5.1-14.8,11-22.9,15.8
				c-11,6.5-24.5,12.2-37.8,13.7c-8.8,1-9.3-2.1-6.3-9.1C199.5,631.3,202.4,626.2,207.2,622.5z"/>
			<path id="XMLID_502_" class="st6" d="M214,646.1c6.1-0.8,12.4-1.3,18.1-3.2c3.1-1,6-2.5,9.3-2.9c3.9-0.6,7.8,0.3,11.7,0.8
				c9.1,1.1,18.3,0,27.5,0.4c1,0.1,2.3,0.2,2.7,1.1c-11.3,2.4-23,4.9-32.4,10.6c-2.5,1.5-4.7,3.2-7.4,4.4c-4,1.8-8.5,2.4-13,2.8
				c-4.2,0.4-8.4,0.6-12.5,0.2c-6.7-0.6-13.5-2.8-18.8-6.5c-3.6-2.5-0.2-3.8,3-5.1C205.9,647.4,210,646.7,214,646.1z"/>
			<path id="XMLID_501_" class="st6" d="M188.6,637.9c-3.8-2.9-8.3-5.3-12.5-7.7c-13.2-7.7-25.1-16.8-37.3-25.7
				c-1.7-1.2-3.4-2.5-5.3-3.3c-2.4-1-5.1-1.5-7.7-2c-14.6-2.6-29.1-5.8-43.3-9.6c3.3,7.2,7,14.8,14.2,19.6
				c7.8,5.2,18.9,6.4,25.8,12.4c3.1,2.7,5.1,6.1,8.4,8.6c6.2,4.6,15.2,4.9,23.2,6.5c6.2,1.3,12.1,3.5,18.2,5.3
				c6,1.8,13.6,3.9,19.9,5C201.3,648.4,191.4,640,188.6,637.9z"/>
			<path id="XMLID_499_" class="st6" d="M304.3,563.4c-2.9,9.3-5.9,19-13.4,26.3c-10.3,10-26.7,13.6-39.7,21.1
				c-6.9,4-12.8,9-19.2,13.6c-11,7.8-23.4,14.2-36.7,18.9c-3.5,1.2-8.1-0.6-11.7-1.4c-3.3-0.7-6.5-1.7-9.5-2.9
				c-5-2.1-9.4-5.1-14-7.8c-7.4-4.3-15.3-7.9-23.2-11.5c-4.3-2-8.7-3.9-13.2-5.5c-9.1-3.3-18.8-5.2-28.6-6.2"/>
		</g>
	</g>
	<g id="XMLID_474_">
		<g id="XMLID_485_">
			<defs>
				<path id="XMLID_486_" d="M612.1,355.5L612.1,355.5c-90.7,0-164.3,61.8-164.3,138V667c0,76.2,73.5,138,164.3,138h0
					c90.7,0,164.3-61.8,164.3-138V493.5C776.4,417.3,702.8,355.5,612.1,355.5z"/>
			</defs>
			<clipPath id="XMLID_94_">
				<use xlink:href="#XMLID_486_"  style="overflow:visible;"/>
			</clipPath>
			<path id="XMLID_493_" class="st7" d="M612.1,355.5L612.1,355.5c-90.7,0-164.3,61.8-164.3,138V667c0,76.2,73.5,138,164.3,138h0
				c90.7,0,164.3-61.8,164.3-138V493.5C776.4,417.3,702.8,355.5,612.1,355.5z"/>
			<rect id="XMLID_492_" x="410.5" y="470.7" class="st8" width="232.1" height="267.9"/>
			<polygon id="XMLID_491_" class="st9" points="778.1,685 778.1,631.4 710.4,631.4 710.4,577.8 642.6,577.8 642.6,524.3 
				574.9,524.3 574.9,470.7 507.1,470.7 507.1,738.5 566,738.5 574.9,738.5 845.9,738.5 845.9,685 			"/>
			<rect id="XMLID_490_" x="507.1" y="685" class="st10" width="296.3" height="53.6"/>
			<ellipse id="XMLID_489_" class="st11" cx="657.9" cy="466.3" rx="54.3" ry="45.6"/>
		</g>
		<g id="XMLID_476_">
			<path id="XMLID_484_" class="st12" d="M625.6,601.2c-4.3,8.9-3.1,18.9-1.5,28.5c4.4,26.3,11.1,52.9,27.4,75.6
				c16.2,22.7,43.5,41.3,75,43.7c14.9,1.2,29.8-1.3,44.4-4.2c29.4-5.9,59.8-14.6,79.4-33.9c19.6-19.3,25.3-46.4,21.8-71.6
				c-3.5-25.2-15.1-49-26.6-72.4c-3.4-6.8-6.8-13.8-12.7-19.3c-7.6-7.2-18.6-11.2-29.6-13.9c-33.3-8.4-80.4-9-110.5,8
				c-9.7,5.5-16.6,13.9-24.7,20.7C654.1,574.1,633.3,585.4,625.6,601.2z"/>
			<path id="XMLID_482_" class="st12" d="M636.8,636.1c3.2,17.2,13.2,32.9,23.7,47.9c6.3,9.1,12.9,18.1,19.6,26.9
				c4.1,5.4,8.5,10.9,14.6,14.8c10.9,7,25.6,7.8,39.3,7.9c31,0.2,64.1-2.9,88-19.4c21.4-14.8,32-38.8,31.8-62.1
				c-0.2-23.3-10.1-45.9-24-66.1c-9-13-20.9-25.9-38.1-29.9c-13.4-3.1-27.7-0.2-41.1,2.9C700.8,570.7,626.2,578.7,636.8,636.1z"/>
			<path id="XMLID_481_" class="st12" d="M675.1,636.6c-4.5,21.3,8.6,42.6,24.9,59.4c13.9,14.3,33.1,27.5,55,26.3
				c7.3-0.4,14.4-2.4,21.1-4.8c15.1-5.3,29.4-12.7,39.9-23.2c10.5-10.5,16.7-24.5,14.3-38.1c-2.1-12-10.5-22.5-19.8-31.8
				c-12.6-12.6-27.5-24-45.5-30.6C723.3,578.4,683,599.2,675.1,636.6z"/>
			<path id="XMLID_480_" class="st12" d="M709.5,608.9c-1.3,1.9-1.8,4.1-2.4,6.2c-2,8.1-4,16.2-5.9,24.3c-1,4.1-2,8.3-1.5,12.5
				c1.1,8.8,8.8,16,16.1,22.4c7.7,6.9,16.1,14.1,27.1,16.2c6.2,1.2,12.6,0.7,18.9-0.1c14.9-1.9,31.4-6.5,37.1-18.2
				c4.1-8.4,1.2-18-1.7-26.7c-2.9-8.6-6-17.7-13.6-24.1c-3.9-3.3-8.8-5.7-13.8-7.9C756,607.5,721.4,591.4,709.5,608.9z"/>
			<path id="XMLID_477_" class="st12" d="M732.5,643.8c4.6,6,10.7,12.4,19.2,12.8c7.3,0.3,14-4.6,15.9-10.6
				C777.1,615.6,701.8,604.4,732.5,643.8z"/>
		</g>
	</g>
	<g id="XMLID_450_">
		<g id="XMLID_466_">
			<defs>
				<path id="XMLID_467_" d="M626.8,28.3L626.8,28.3c-73.8,0-133.7,50.3-133.7,112.3V304h267.4V140.6
					C760.5,78.6,700.6,28.3,626.8,28.3z"/>
			</defs>
			<clipPath id="XMLID_95_">
				<use xlink:href="#XMLID_467_"  style="overflow:visible;"/>
			</clipPath>
			<path id="XMLID_472_" class="st13" d="M626.8,28.3L626.8,28.3c-73.8,0-133.7,50.3-133.7,112.3V304h267.4V140.6
				C760.5,78.6,700.6,28.3,626.8,28.3z"/>
			<rect id="XMLID_471_" x="546.4" y="128.9" class="st14" width="214.1" height="175.1"/>
			<path id="XMLID_469_" class="st15" d="M569.7,82.6c0,15.8-14.1,15.8-14.1,31.6c0,15.8,14.1,15.8,14.1,31.6
				c0,15.8-14.1,15.8-14.1,31.6c0,15.8,14.1,15.8,14.1,31.6c0,15.8-14.1,15.8-14.1,31.6c0,15.8,14.1,15.8,14.1,31.6
				c0,15.8-14.1,15.8-14.1,31.6h-83.9V82.6H569.7z"/>
			<path id="XMLID_468_" class="st16" d="M697.8,252.7h-72.6v-52.6c0-16.8,16.2-30.5,36.3-30.5l0,0c20,0,36.3,13.6,36.3,30.5V252.7z
				"/>
		</g>
		<g id="XMLID_451_">
			<path id="XMLID_465_" class="st6" d="M761.6,304c-3.9-14.5-2.6-29.5-1.8-44.3c0.8-14.1,1.1-28.3,0.1-42.4
				c-1.7-22.9-6.8-45.5-8.4-68.4c-0.4-5.2-0.5-9.5-2.3-14.3c-1.5-3.9-2.1-8-2.4-12.1c-0.6-8.5,0.4-17,0.9-25.5
				c0.8-14.3,3.2-28.5,7.4-42.3c-1.6,5.3,2.3,14.9,3,20.4c0.9,7.3,1.5,14.6,1.6,21.9c0.1,12.1,0.2,31.1-8.5,41.3
				c-0.4-0.6-0.8-1.2-1.1-1.9"/>
			<path id="XMLID_464_" class="st6" d="M821.4,93.1c0.1,4.7-3.5,8.8-7.1,12.3c-8.6,8.5-18.3,16.2-28.7,23
				c-5.2,3.4-10.7,6.6-16.3,9.5c-4.8,2.5-11.7,7-17.2,7.6c-0.5-4.1,10-11.2,13.3-14.1c5.6-4.9,11.4-9.6,17.4-14.1
				C794.8,108.3,807.7,100.2,821.4,93.1z"/>
			<path id="XMLID_462_" class="st6" d="M751.9,145.5c-6.9-3.9-13.9-7.9-20.8-11.8c-3.2-1.8-6.4-3.7-9.1-6.1
				c-2.8-2.5-4.8-5.5-7.1-8.4c-3.4-4.3-7.5-8.2-12.4-11.1c-3.2-1.9-6.7-3.3-9.8-5.3c-3.3-2.1-6-4.9-9.2-7.1
				c-3.2-2.2-7.2-3.9-11.3-3.4c8.8,5.8,15.2,13.7,20.4,22.2c3.4,5.6,6.1,11.8,11.6,16c5.8,4.5,13.9,6,21.1,8.6
				c3.8,1.4,7.5,3.1,11.5,3.9C742.3,144,746.9,143.5,751.9,145.5z"/>
			<path id="XMLID_459_" class="st6" d="M776,151c9.1-3.3,18.7-5.7,27.4-9.6c15.9-7,29.6-18.6,47.3-20.7c-5.9,3.2-9.2,8.7-13.9,13.1
				c-8.6,7.9-21.4,11.5-31.1,18.5c-2.6,1.9-5,4-7.8,5.7c-3.8,2.3-8.2,3.7-12.6,4.9c-5,1.3-27.4,7.3-31.3,2.6
				C750.3,161,772.1,152.4,776,151z"/>
			<path id="XMLID_458_" class="st6" d="M688.1,136.4c4.9,1.9,8.6,5.8,13.9,6.7c2.4,0.4,4.9,0.2,7.3,0.4c6.3,0.6,11.6,4.1,17.6,5.9
				c2.1,0.6,4.3,1.1,6.3,1.9c1.9,0.8,3.6,2,5.2,3.2c1.9,1.4,3.8,2.8,5.7,4.1c3.4,2.4,6.8,4.9,9.3,8.1c0.3,0.4-0.1,0.9-0.6,0.9
				c-8-0.2-15.6-3.2-23.4-5.1c-5.2-1.3-10.6-2.1-16-2.4c-8.1-0.5-16.4,0.1-24.2-1.7c-10.7-2.4-19.4-9.1-24.9-17.2
				c-0.7-1-6.4-4.6-5.4-5.8c1-1.3,9.4-0.5,10.9-0.5C675.9,134.8,682.4,134.1,688.1,136.4z"/>
			<path id="XMLID_457_" class="st6" d="M780.2,184.4c4.1-2.2,8.5-4,12.6-6.3c4.6-2.6,8.8-5.7,13.5-8.2c5.2-2.8,11.1-4.7,16.5-7.1
				c11.1-4.9,21.2-12.2,33.6-13.9c-2.6,12.4-15.4,21.3-27.3,28.9c-9.8,6.3-19.9,12.7-31.7,15.7c-12.4,3.1-25.9,2.3-37.9,6.4
				c-0.3,0.1-0.5-0.2-0.3-0.4C765.7,194,772.3,188.5,780.2,184.4z"/>
			<path id="XMLID_456_" class="st6" d="M661,168.2c3.7,0.4,6.8,3,10.5,3.3c2.3,0.2,4.5-0.5,6.7-0.6c4.8-0.3,9.4,1.7,13.7,3.6
				c2.9,1.3,5.7,2.6,8.2,4.3c1.9,1.3,3.6,2.8,5.7,4c3.3,1.8,7.3,2.6,11.2,3.2c6.9,1,14.1,1.7,20,5c3.9,2.2,7,5.5,11.4,6.7
				c3.5,1,8.1,1,9.4,3.9c-12.2-0.2-24.2-2.4-36.2-4.6c-3.5-0.6-6.9-1.3-10.5-1.6c-3.7-0.3-7.5-0.2-11.2-0.2
				c-7.6-0.1-15.5-0.8-22-4.1c-5.2-2.6-9-6.6-12.6-10.5c-1.8-2-3.6-4.1-5.5-6c-1.7-1.7-5.1-3.8-6-5.7
				C656.2,168.3,658.8,168,661,168.2z"/>
			<path id="XMLID_455_" class="st6" d="M685.1,210.1c9.5,1.3,20-0.3,28.3,3.8c2.2,1.1,4.1,2.5,6.4,3.4c2.1,0.9,4.3,1.3,6.5,1.8
				c11.9,2.5,23.4,6.2,34.2,11c0.1,0,0.1,0.2,0,0.2c-11.8,2.2-23.9,3.2-36,2.9c-4.5-0.1-9.1-0.4-13.6-0.4c-7.2,0-14.4,0.7-21.5-0.3
				c-7.1-1-14.2-4.3-17-9.8c-1.1-2.1-1.5-4.4-2.4-6.5c-1.2-2.7-11.8-8.7-8.9-8.9C666.4,207.1,679.8,209.4,685.1,210.1z"/>
			<path id="XMLID_454_" class="st6" d="M771.4,223.4c2.9-1.1,5.8-2.2,8.9-2.9c2.3-0.5,4.6-0.8,6.8-1.5c3.8-1.2,7.1-3.5,11-4.4
				c2-0.5,4.1-0.6,6.1-0.8c10.4-1.2,19.6-5.9,28.6-10.4c1-0.5,2-1,3.1-1.2c1-0.2,2.1-0.3,3.2-0.3c3.5-0.1,6.9-0.1,10.4-0.2
				c-2.7,1.5-4.1,4-5.3,6.5c-0.8,1.6-1.6,3.1-2.5,4.7c-0.5,1-1.1,2.1-2.2,2.8c-0.8,0.6-1.8,0.9-2.8,1.2c-3,0.9-6,1.8-9,2.6
				c-1.9,0.6-3.9,1.1-5.6,2c-3.2,1.5-5.7,3.9-8.9,5.3c-1.9,0.8-4,1.3-6.1,1.7c-3.3,0.6-6.7,0.9-10.2,0.9c-1.9,0-3.9-0.1-5.8,0.2
				c-2,0.2-3.9,0.8-5.9,1.2c-4,0.7-8,0.3-11.9-0.4c-2-0.3-3.9-0.7-5.8-1.1c-1.5-0.3-4.7-0.4-5.8-1.2
				C763.8,225.8,768.5,224.5,771.4,223.4z"/>
		</g>
	</g>
	<g id="XMLID_268_">
		<g id="XMLID_436_">
			<defs>
				<path id="XMLID_437_" d="M270.4,17.3L270.4,17.3C175.2,17.3,98.1,82.1,98.1,162v182c0,79.9,77.2,144.8,172.3,144.8h0
					c95.2,0,172.3-64.8,172.3-144.8V162C442.8,82.1,365.6,17.3,270.4,17.3z"/>
			</defs>
			<clipPath id="XMLID_96_">
				<use xlink:href="#XMLID_437_"  style="overflow:visible;"/>
			</clipPath>
			<path id="XMLID_449_" class="st17" d="M287.1,18v470.2c87.3-7.1,155.6-68.9,155.6-144.1V162C442.8,86.8,374.5,25,287.1,18z"/>
			<path id="XMLID_448_" class="st18" d="M270.4,17.3L270.4,17.3C175.2,17.3,98.1,82.1,98.1,162v182c0,79.9,77.2,144.8,172.3,144.8
				h0c5.6,0,11.2-0.2,16.7-0.7V18C281.6,17.5,276.1,17.3,270.4,17.3z"/>
			<g id="XMLID_438_" class="st19">
				<path id="XMLID_446_" class="st20" d="M104.7,169.2h79.1c12.9,0,23.3,10.4,23.3,23.3v254.9c0,12.9-10.4,23.3-23.3,23.3h-79.1
					c-12.9,0-23.3-10.4-23.3-23.3V192.5C81.3,179.6,91.8,169.2,104.7,169.2z"/>
				<polygon id="XMLID_445_" class="st2" points="207.4,314.8 207.4,251.9 287,251.9 287,189 366.5,189 366.5,126.1 446.1,126.1 
					446.1,63.2 525.6,63.2 525.6,377.8 456.5,377.8 446.1,377.8 144.2,377.8 144.2,314.8 				"/>
				<ellipse id="XMLID_444_" class="st21" cx="201.1" cy="163" rx="56.9" ry="47.8"/>
			</g>
		</g>
		<g id="XMLID_425_">
			<path id="XMLID_435_" class="st12" d="M73.6,433.8c4.6,5,9.6,9.9,16.2,12.8c6.8,3,14.8,3.6,22.5,3.8c34.7,0.7,69.7-6.5,100-20.7
				c5.4-2.5,10.9-5.5,14-10c2.6-3.9,3.3-8.4,3.8-12.9c1.2-9.6,2.4-19.3,3.6-28.9c1-8.3,2-16.8-0.5-24.8c-3-9.5-10.7-17.4-18.4-24.8
				c-31.4-29.8-67.8-55.9-107.8-77.2c-13.4-7.1-28.9-13.9-44.3-10.8c-7.4,1.5-14,5.3-19.3,9.8c-17.7,15.1-22.1,38-22.4,59.2
				c-0.3,20.8-0.5,48.6,10.1,67.8C42,396.7,57.7,416.7,73.6,433.8z"/>
			<path id="XMLID_434_" class="st12" d="M203.3,394.1c3.3-3.5,4.3-8.1,4.9-12.5c0.6-5.4,0.5-11.3-3.3-15.7c-2.7-3.2-6.8-5.3-11-7.1
				c-4.7-2.1-9.8-4.1-15.1-4.3c-5.4-0.2-11.2,1.8-13.5,5.9c-1.4,2.4-1.4,5.3-1.2,8c0.3,5.5,0.9,10.9,2,16.3
				c1.2,6.2,4.3,15.4,13.1,16.7C186.8,402.3,198.5,399.2,203.3,394.1z"/>
			<path id="XMLID_431_" class="st12" d="M207.2,400.5c4.3-4.7,6.9-10.3,9-15.9c1.2-3.4,2.3-6.8,1.9-10.3c-0.3-2.5-1.3-4.9-2.5-7.2
				c-6.5-12.9-16.7-24.1-27.5-34.7c-3-2.9-6-5.8-9.6-8.1c-5.3-3.3-11.7-5.3-18.1-6.7c-7-1.6-14.5-2.7-21.4-0.8
				c-9.6,2.6-15.7,10.3-20.9,17.6c-4.1,5.7-8.1,11.8-8.5,18.4c-0.3,4.9,1.4,9.8,3.4,14.4c2.6,6,5.8,11.9,9.5,17.5
				c2,3.1,4.2,6.1,7.3,8.5c2.8,2.2,6.2,3.7,9.6,5.1c13.6,5.5,28.3,9.2,42.9,12.3C192,412.5,201.2,407,207.2,400.5z"/>
			<path id="XMLID_430_" class="st12" d="M208,411.5c3.5-4.8,6.8-9.7,9.9-14.7c2.6-4.1,5.1-8.3,6.4-12.8c2.9-9.7,0.3-20.2-5-29.1
				c-5.4-8.9-13.4-16.6-21.6-23.8c-10-8.7-20.7-16.9-31.3-25.2c-10.1-7.8-20.2-15.6-31.2-22.5c-4-2.5-8.2-4.9-13-6
				c-4.9-1.2-10.2-0.9-15.3-0.2c-10.7,1.5-21.1,4.6-30.4,9.3c-5.9,2.9-11.4,6.6-15.1,11.3c-4,5.1-5.8,11.1-7,17.1
				c-2.6,12.8-2.9,25.8-3.3,38.7c-0.1,5.3-0.3,10.7,1.3,15.8c2.6,8.8,9.8,16.1,17.2,22.7c6.6,5.9,13.7,11.7,22.2,15.6
				c7.3,3.3,15.4,5.1,23.4,6.7c19.8,4,39.8,7.3,59.9,9.9c6.3,0.8,12.4,1.7,18.2-0.8C199.8,420.8,204.3,416.7,208,411.5z"/>
			<path id="XMLID_426_" class="st12" d="M232,369.4c0.3-3.6,0.2-7.3-1.1-10.8c-1.6-4.3-4.8-8.1-8.1-11.6
				c-22.9-25.2-49.7-48-79.5-67.5c-6.4-4.2-13.1-8.3-20.8-10.7c-9.6-3-20-3.1-30.2-2.7c-10.7,0.4-22,1.5-30.2,7.3
				c-9.3,6.6-12.1,17.6-13.8,27.7c-3.6,21.4-4.8,43.1-3.7,64.7c0.2,4,0.5,8.1,1.9,12c1.2,3.4,3.2,6.5,5.3,9.6
				c5.8,8.7,11.9,17.2,18.4,25.5c4.3,5.4,9,11,15.9,13.9c5.7,2.4,12.4,2.7,18.8,3c12.1,0.5,24.2,1,36.3,1.4
				c9.9,0.4,19.9,0.8,29.8,0.1c8.6-0.6,17-2.1,25.7-2.6c7.6-0.4,11.2-4.3,14.8-9.8c4.8-7.2,8.9-15,12.6-22.7
				C228.1,387.6,231.3,378.6,232,369.4z"/>
		</g>
	</g>
</g>
</svg>
